<?xml version="1.0" encoding="utf-8"?>
<!DOCTYPE svg PUBLIC "-//W3C//DTD SVG 1.1//EN" "http://www.w3.org/Graphics/SVG/1.1/DTD/svg11.dtd">
<svg version="1.1" id="Camada_1" xmlns="http://www.w3.org/2000/svg" xmlns:xlink="http://www.w3.org/1999/xlink" x="0px" y="0px"
	 width="674.05px" height="235.019px" viewBox="0 0 674.05 235.019" enable-background="new 0 0 674.05 235.019"
	 xml:space="preserve">
<g>
	<g>
		<defs>
			<path id="SVGID_1_" d="M387.441-281.275v-0.256l5.641-28.21c0,0-12.537-28.837-54.537-25.389
				c-42.002,3.448-47.33,13.165-54.226,24.762l4.074,18.493l-7.836,5.015c0,0-2.821-8.463-7.209-8.776c0,0,6.582-9.403,1.881-15.985
				c-4.702-6.583-29.777-5.956-39.494,27.269c0,0-1.253-10.03-5.328-10.03s-19.12,5.329-15.045,21
				c4.074,15.672,18.18,20.374,22.881,22.254c0,0,2.193,2.821,1.254,6.582c-0.494,1.975-11.868,37.133-2.368,69.633
				c7.095,24.27,29.774,45.357,29.774,45.357c17.322,16.523,40.693,26.658,66.413,26.658c53.395,0,96.688-43.67,96.688-97.545
				C430.003-234.078,413.121-263.74,387.441-281.275z"/>
		</defs>
		<clipPath id="SVGID_2_">
			<use xlink:href="#SVGID_1_"  overflow="visible"/>
		</clipPath>
		<g clip-path="url(#SVGID_2_)">
			<ellipse fill="#D1D1D1" cx="339.029" cy="33.125" rx="89.265" ry="7.443"/>
			<g>
				<g>
					<path fill="#050505" d="M258.488-76.548l76.568,98.746c0,0,2.994,1.07,4.277-0.428v-98.318H258.488z"/>
					<path fill="#050505" d="M335.056,22.198L319.658,32.25v2.139h19.891l-0.215-12.619
						C339.333,21.77,337.197,19.418,335.056,22.198z"/>
				</g>
				<g>
					<path fill="#050505" d="M419.57-76.548L343,22.198c0,0-2.992,1.07-4.277-0.428v-98.318H419.57z"/>
					<path fill="#050505" d="M343,22.198l15.4,10.053v2.139h-19.891l0.213-12.619C338.722,21.77,340.861,19.418,343,22.198z"/>
				</g>
				<path fill="#191919" d="M339.027,21.465c0.447-5.318,0.717-12.174,0.717-19.658s-0.27-14.338-0.717-19.66
					c-0.445,5.322-0.713,12.176-0.713,19.66S338.582,16.147,339.027,21.465z"/>
			</g>
		</g>
	</g>
</g>
<g>
	<g>
		<polygon fill="#050505" points="277.458,118.176 284.106,118.176 272.419,132.646 260.635,118.176 267.326,118.176 
			267.326,111.635 242.15,111.635 242.15,118.176 252.127,118.176 268.931,138.839 268.931,151.751 259.169,151.751 
			259.169,158.312 285.65,158.312 285.65,151.751 275.881,151.751 275.881,138.839 292.691,118.176 302.636,118.176 
			302.636,111.635 277.458,111.635 		"/>
		<polygon fill="#050505" points="355.654,151.623 326.659,151.623 326.659,137.069 350.931,137.069 350.931,130.402 
			326.659,130.402 326.659,118.333 355.208,118.333 355.208,127.689 361.744,127.689 361.744,111.635 310.583,111.635 
			310.583,118.176 319.714,118.176 319.714,151.751 310.583,151.751 310.583,158.312 362.222,158.312 362.222,141.599 
			355.654,141.599 		"/>
		<path fill="#050505" d="M424.984,134.974c0,5.776-1.736,10.035-5.316,13.012c-3.605,2.999-9.164,4.52-16.514,4.52
			c-7.371,0-12.963-1.523-16.617-4.522c-3.615-2.974-5.367-7.232-5.367-13.009c0-5.715,1.758-9.954,5.375-12.96
			c3.652-3.034,9.24-4.57,16.609-4.57c7.355,0,12.91,1.521,16.512,4.515C423.248,124.943,424.984,129.202,424.984,134.974
			 M423.734,116.56c-2.627-1.966-5.758-3.435-9.291-4.367c-3.484-0.916-7.287-1.382-11.289-1.382c-2.664,0-5.264,0.199-7.717,0.604
			c-2.473,0.411-4.814,1.048-6.973,1.895c-2.193,0.873-4.195,1.966-5.953,3.256c-1.803,1.309-3.371,2.899-4.656,4.721
			c-1.275,1.817-2.273,3.883-2.967,6.141c-0.699,2.26-1.053,4.796-1.053,7.547c0,4.134,0.768,7.777,2.285,10.829
			c1.518,3.044,3.646,5.595,6.33,7.589c2.625,1.958,5.771,3.427,9.352,4.36c3.498,0.923,7.32,1.389,11.352,1.389
			c4.012,0,7.811-0.466,11.289-1.389c3.555-0.934,6.682-2.404,9.291-4.36c2.658-1.994,4.777-4.545,6.291-7.592
			c1.52-3.041,2.287-6.688,2.287-10.826c0-4.143-0.768-7.783-2.287-10.827C428.511,121.108,426.392,118.554,423.734,116.56"/>
		<polygon fill="#050505" points="480.55,149.977 455.699,111.637 440.042,111.637 440.042,118.173 449.173,118.173 
			449.173,151.751 440.042,151.751 440.042,158.312 465.218,158.312 465.218,151.751 456.119,151.751 456.119,124.545 
			477.833,158.312 482.992,158.312 504.675,124.695 504.675,151.751 495.548,151.751 495.548,158.312 520.724,158.312 
			520.724,151.751 511.591,151.751 511.591,118.173 520.724,118.173 520.724,111.637 505,111.637 		"/>
		<path fill="#050505" d="M556.917,136.892l8.738-16.718l8.771,16.718H556.917z M568.912,111.637h-21.027v6.539h11.09
			l-17.535,33.575h-8.98v6.563h25.18v-6.563h-8.547l4.328-8.291h24.498l4.264,8.291h-8.498v6.563h25.209v-6.563h-8.984
			L568.912,111.637z"/>
		<polygon fill="#050505" points="648.876,111.637 648.876,118.176 658.007,118.176 658.007,148.1 622.197,111.637 606.599,111.637 
			606.599,118.176 615.73,118.176 615.73,151.751 606.599,151.751 606.599,158.315 631.781,158.315 631.781,151.751 
			622.679,151.751 622.679,121.966 658.488,158.315 664.957,158.315 664.957,118.176 674.05,118.176 674.05,111.637 		"/>
	</g>
	<g>
		<path fill="#020202" d="M118.648,235.019c-54.691,0-99.186-44.88-99.186-100.045c0-55.163,44.494-100.041,99.186-100.041
			s99.186,44.878,99.186,100.041C217.833,190.139,173.339,235.019,118.648,235.019z M118.648,39.933
			c-51.934,0-94.186,42.635-94.186,95.041c0,52.408,42.252,95.045,94.186,95.045c51.935,0,94.186-42.637,94.186-95.045
			C212.833,82.568,170.583,39.933,118.648,39.933z"/>
		<g>
			<defs>
				<path id="SVGID_3_" d="M172.771,54.14v-0.256l5.643-28.209c0,0-12.537-28.838-54.539-25.389
					c-42,3.447-47.328,13.164-54.225,24.762l4.074,18.492l-7.836,5.016c0,0-2.82-8.463-7.209-8.776c0,0,6.582-9.403,1.881-15.985
					s-29.777-5.956-39.494,27.27c0,0-1.252-10.03-5.328-10.03c-4.074,0-19.119,5.329-15.045,21.001s18.18,20.373,22.881,22.254
					c0,0,2.193,2.82,1.254,6.582c-0.494,1.975-11.867,37.133-2.367,69.633c7.094,24.27,29.773,45.357,29.773,45.357
					c17.322,16.523,40.693,26.658,66.414,26.658c53.395,0,96.686-43.67,96.686-97.545C215.333,101.338,198.453,71.676,172.771,54.14
					z"/>
			</defs>
			<clipPath id="SVGID_4_">
				<use xlink:href="#SVGID_3_"  overflow="visible"/>
			</clipPath>
			<g clip-path="url(#SVGID_4_)">
				<path fill="#050505" d="M152.747,170.529c0,0,70.272,11.314,78.014,109.576c0,0-13.103,8.338-26.799,8.934
					C203.961,289.039,205.153,213.408,152.747,170.529z"/>
				<g>
					<path fill="#DD002A" d="M193.838,231.99c0.55,1.59,1.067,3.17,1.56,4.734c4.617-0.469,14.965-1.93,24.133-6.082
						c-0.641-1.537-1.301-3.027-1.977-4.486C214.183,227.708,206.709,230.468,193.838,231.99z"/>
				</g>
				<g>
					<g>
						<circle fill="#F4CF8C" cx="80.256" cy="96.111" r="15.072"/>
						<circle fill="#F4CF8C" cx="80.256" cy="96.111" r="15.072"/>
						<path fill="#F4CF8C" d="M65.184,96.111c0,0.463,0.024,0.92,0.065,1.372c1.074-0.456,2.219-1.05,3.439-1.831
							c7.142-4.562,7.354-10.004,5.758-13.451C69.007,84.474,65.184,89.845,65.184,96.111z"/>
						<circle fill="#F4CF8C" cx="72.47" cy="96.111" r="7.286"/>
						<g>
							<path fill="#D8AF6F" d="M72.47,88.826c-0.297,0-0.586,0.021-0.872,0.057c2.84,0.432,5.042,3.5,5.042,7.229
								s-2.202,6.797-5.042,7.229c0.286,0.034,0.575,0.057,0.872,0.057c4.022,0,7.285-3.262,7.285-7.285S76.493,88.826,72.47,88.826
								z"/>
							<path fill="#F4CF8C" d="M71.598,88.882c-0.226-0.035-0.453-0.057-0.686-0.057c-3.164,0-5.729,3.262-5.729,7.285
								C65.184,92.382,67.986,89.314,71.598,88.882z"/>
							<path fill="#F4CF8C" d="M65.184,96.111c0,4.023,2.564,7.285,5.729,7.285c0.232,0,0.46-0.022,0.686-0.057
								C67.986,102.908,65.184,99.839,65.184,96.111z"/>
						</g>
					</g>
					<g>
						<circle fill="#F4CF8C" cx="168.463" cy="96.111" r="15.073"/>
						<circle fill="#F4CF8C" cx="168.463" cy="96.111" r="15.073"/>
						<circle fill="#F4CF8C" cx="176.25" cy="96.111" r="7.286"/>
						<g>
							<path fill="#D8AF6F" d="M172.08,96.111c0-3.729,2.201-6.797,5.041-7.229c-0.285-0.035-0.576-0.057-0.871-0.057
								c-4.025,0-7.285,3.262-7.285,7.285s3.26,7.285,7.285,7.285c0.295,0,0.586-0.022,0.871-0.057
								C174.281,102.908,172.08,99.839,172.08,96.111z"/>
							<path fill="#F4CF8C" d="M183.537,96.111c0-4.023-2.566-7.285-5.729-7.285c-0.234,0-0.462,0.021-0.688,0.057
								C180.734,89.314,183.537,92.382,183.537,96.111z"/>
							<path fill="#F4CF8C" d="M177.121,103.339c0.226,0.034,0.453,0.057,0.688,0.057c3.162,0,5.729-3.262,5.729-7.285
								C183.537,99.839,180.734,102.908,177.121,103.339z"/>
						</g>
					</g>
				</g>
				<g>
					<path fill="#F4CF8C" d="M38.152,105.74c0,0,14.375,1.876,12.5-12.499c0,0,5,7.812,16.25,0.624
						c11.25-7.187,5.312-16.562,2.188-16.873c-3.125-0.313-7.5-3.752-18.438,7.499l-6.25-14.374l7.188-9.376
						c0,0,0.987,13.542,11.432,9.739c10.443-3.801,2.631-26.927-6.744-26.927S39.402,53.24,39.402,53.24s3.125-8.748,16.875-15.936
						c0,0,5.312-3.125,2.188-10.938s-32.812-2.188-37.5,35.937c0,0-5.312-5-4.062-12.812S1.589,43.866,4.714,60.741
						C7.839,77.617,24.09,81.052,24.09,81.052s5.517,8.927,1.562,19.062C25.652,100.115,31.902,107.928,38.152,105.74z"/>
					<g>
						<path fill="#F4CF8C" d="M66.902,93.865c11.25-7.187,5.312-16.562,2.188-16.873c-1.921-0.193-4.318-1.562-8.418,0.023
							l3.683,7.585c0,0-0.757,10.849-12.866,8.073c0,0-0.128,0.427-0.444,1.076C52.416,95.359,57.454,99.902,66.902,93.865z"/>
						<path fill="#F4CF8C" d="M50.757,94.298c-1.873,3.359-8.365,9.812-23.969,1.768c-0.297,1.406-0.578,2.656-1.137,4.049
							c0,0,6.25,7.813,12.5,5.625C38.152,105.74,51.798,107.514,50.757,94.298z"/>
					</g>
					<path fill="#F4CF8C" d="M51.589,60.741c0,0,0.987,13.542,11.432,9.739c4.27-1.555,5.487-6.34,4.794-11.455
						c-2.606,2.697-10.653,9.541-13.805-4.954L39.628,70.723l-11.354,6.56l14.129-3.532l8.248,10.74l-6.25-14.374L51.589,60.741z"/>
					<path fill="#F4CF8C" d="M41.754,49.178c2.327-3.201,6.708-7.79,14.522-11.874c0,0,5.312-3.125,2.188-10.938
						c-0.054-0.135-0.117-0.264-0.186-0.389c-0.742,2.363-2.189,5.18-5.025,7.152c-5.803,4.037-26.492,18.417-19.932,40.115
						C33.322,73.246,30.667,59.82,41.754,49.178z"/>
					<path fill="#F4CF8C" d="M20.668,61.997c-1.098-1.19-4.837-5.815-3.767-12.506c0.494-3.086-1.795-4.604-4.549-4.28
						c-0.49,8.401,0.668,25.426,17.184,30.306C29.537,75.516,23.281,72.543,20.668,61.997z"/>
				</g>
				<path fill="#050505" d="M25.652,100.115l12.5,5.625c0,0-11.25,61.875,47.5,64.375c0,0,0.414,39.797-35.836,39.174
					C49.816,209.289,1.906,171.232,25.652,100.115z"/>
				<path fill="#DD002A" d="M40.626,139.4c-0.191-0.566-0.371-1.135-0.543-1.703c-0.003-0.01-0.007-0.021-0.01-0.033
					c-2.777,1.439-10.247,4.67-20.959,4.564c0.049,1.381,0.13,2.736,0.232,4.076c5.38,0.016,14.254-0.711,21.997-4.887
					c-0.005-0.014-0.011-0.029-0.016-0.043c-0.223-0.584-0.431-1.17-0.63-1.758C40.673,139.544,40.65,139.472,40.626,139.4z"/>
				<path fill="#DD002A" d="M44.587,148.265c-0.295-0.514-0.579-1.031-0.853-1.553c-0.001-0.002-0.003-0.004-0.004-0.006
					c-3.2,1.516-12.116,5.143-23.808,5.152c0.204,1.537,0.443,3.045,0.712,4.523c6.36,0.006,15.767-1.123,24.961-6.447
					c-0.009-0.014-0.017-0.029-0.026-0.043c-0.322-0.506-0.63-1.018-0.928-1.533C44.624,148.328,44.606,148.296,44.587,148.265z"/>
				<path fill="#DD002A" d="M25.652,100.115c-3.394,9.298-4.824,17.829-5.949,25.83c5.943,1.146,11.942,1.254,17.811-2.539
					c-0.748-10.02,0.639-17.666,0.639-17.666L25.652,100.115z"/>
				<path fill="#050505" d="M159.607,168.544H124.36H89.113c-75.036,32.951-57.567,157.219-57.567,157.219h93.299v-56.826
					l5.161,56.826h87.168C217.173,325.763,234.643,201.496,159.607,168.544z"/>
				<path fill="#930023" d="M222.833,284.201c-1.055-26.695-6.416-61.053-24.402-86.768c-21.543-23.008-45.685-26.904-45.685-26.904
					c52.406,42.879,51.215,118.51,51.215,118.51C210.967,288.734,217.812,286.404,222.833,284.201z"/>
				<path fill="#DD002A" d="M34.581,245.972c-0.243,1.143-0.476,2.287-0.696,3.428c20.736-7.637,53.545-12.57,90.476-12.57
					c36.932,0,69.739,4.934,90.476,12.57c-0.221-1.141-0.453-2.285-0.697-3.428c-20.77-7.494-53.258-12.318-89.778-12.318
					S55.351,238.478,34.581,245.972z"/>
				<path fill="#DD002A" d="M38.689,230.279c-0.324,1.027-0.638,2.059-0.94,3.088c20.826-6.865,51.896-11.225,86.611-11.225
					s65.784,4.359,86.61,11.225c-0.301-1.029-0.615-2.061-0.939-3.088c-20.816-6.689-51.479-10.918-85.671-10.918
					C90.166,219.361,59.505,223.589,38.689,230.279z"/>
				<path fill="#DD002A" d="M67.855,182.185c-16.068,20.713-14.336,45.91-14.336,45.91l4.368-1.984
					c-1.374-21.98,8.659-39.393,14.97-48.037C71.124,179.388,69.457,180.759,67.855,182.185z"/>
				<path fill="#DD002A" d="M175.863,178.074c6.311,8.645,16.344,26.057,14.971,48.037l4.366,1.984c0,0,1.733-25.197-14.335-45.908
					C179.264,180.759,177.597,179.388,175.863,178.074z"/>
				<path fill="#F4CF8C" d="M163.347,165.955c0,0-14.984,13.652-39.624,13.652c-29.302,0-38.351-13.652-38.351-13.652L80.185,70.48
					h88.35L163.347,165.955z"/>
				<path fill="#F4CF8C" d="M163.347,165.955c0,0-14.984,13.652-39.624,13.652c-29.302,0-38.351-13.652-38.351-13.652L80.185,70.48
					h88.35L163.347,165.955z"/>
				<path fill="#F4CF8C" d="M163.347,165.955c0,0-14.984,13.652-39.624,13.652c-29.302,0-38.351-13.652-38.351-13.652L80.185,70.48
					h88.35L163.347,165.955z"/>
				<path fill="#B27D30" d="M135.577,86.757l2.183-2.777c0,0,7.94-0.398,20.149,6.152c0,0-8.835-10.918-22.136-7.246l0.398-2.382
					l-3.771,6.154c0,0,1.389,8.237-0.099,14.193h-15.882c-1.49-5.956-0.1-14.193-0.1-14.193l-3.771-6.154l0.396,2.382
					c-13.299-3.672-22.133,7.246-22.133,7.246c12.208-6.551,20.148-6.152,20.148-6.152l2.184,2.777
					c-4.269,8.536-14.293,9.23-14.293,9.23c10.521,1.093,14.393-5.458,14.393-5.458c-0.596,5.161,0.496,11.956,0.496,11.956
					l10.57,7.448l0.05-0.05l0.05,0.05l10.57-7.448c0,0,1.092-6.795,0.496-11.956c0,0,3.871,6.551,14.393,5.458
					C149.869,95.988,139.843,95.293,135.577,86.757z"/>
				<ellipse fill="#050505" cx="124.36" cy="117.675" rx="14.491" ry="8.686"/>
				<path fill="#DD002A" d="M124.36,126.796c3.279,0,6.303-1.088,8.731-2.189c-1.701-1.84-4.974-3.088-8.731-3.088
					c-3.759,0-7.03,1.248-8.731,3.088C118.056,125.708,121.081,126.796,124.36,126.796z"/>
				<path fill="#FFFFFF" d="M124.36,108.991c-8.003,0-14.491,3.889-14.491,8.685c0,0.251,0.021,0.498,0.057,0.745h28.869
					c0.035-0.247,0.057-0.494,0.057-0.745C138.851,112.879,132.363,108.991,124.36,108.991z"/>
				<path fill="#C98C28" d="M124.36,132.017c-2.94,0-5.676-0.525-7.96-1.428c1.83,2.373,4.711,3.91,7.96,3.91s6.129-1.537,7.96-3.91
					C130.037,131.492,127.3,132.017,124.36,132.017z"/>
				<path fill="#C98C28" d="M124.36,157.851c-5.024,0-9.696-0.9-13.599-2.443c3.13,4.055,8.049,6.678,13.599,6.678
					s10.468-2.623,13.598-6.678C134.054,156.951,129.382,157.851,124.36,157.851z"/>
				<polygon fill="#CEA063" points="81.037,86.16 167.682,86.16 168.535,70.48 80.185,70.48 				"/>
				<path fill="#050505" d="M168.728,70.48l7.752-44.809c0,0-11.689-22.943-51.863-22.943c-48.834,0-52.377,22.943-52.377,22.943
					l7.751,44.809H168.728z"/>
				<polygon fill="#DD002A" points="76.667,51.263 79.991,70.48 168.73,70.48 172.053,51.263 				"/>
				<polygon fill="#050505" points="182.126,81.199 66.593,81.199 63.021,70.48 185.699,70.48 				"/>
				<g>
					<circle fill="#050505" cx="124.36" cy="57.406" r="14.286"/>
					<path fill="#DD002A" d="M124.36,69.944c-6.915,0-12.54-5.624-12.54-12.534c0-6.916,5.625-12.541,12.54-12.541
						s12.54,5.625,12.54,12.541C136.9,64.32,131.275,69.944,124.36,69.944z M124.36,46.507c-6.011,0-10.901,4.891-10.901,10.902
						c0,6.008,4.891,10.895,10.901,10.895s10.901-4.887,10.901-10.895C135.261,51.398,130.371,46.507,124.36,46.507z"/>
					<path fill="#DD002A" d="M124.36,66.457c-4.991,0-9.053-4.059-9.053-9.049c0-4.991,4.062-9.053,9.053-9.053
						s9.053,4.062,9.053,9.053C133.413,62.398,129.351,66.457,124.36,66.457z M124.36,49.539c-4.339,0-7.87,3.53-7.87,7.869
						c0,4.337,3.531,7.865,7.87,7.865s7.869-3.528,7.869-7.865C132.229,53.069,128.699,49.539,124.36,49.539z"/>
					<polygon fill="#DD002A" points="126.625,54.232 130.743,51.259 127.619,55.263 132.532,53.978 128.171,56.583 133.217,57.161 
						128.21,58.017 132.708,60.377 127.73,59.365 131.07,63.191 126.796,60.449 128.528,65.223 125.531,61.123 125.421,66.2 
						124.109,61.292 122.173,65.99 122.722,60.939 119.22,64.618 121.554,60.109 116.959,62.275 120.769,58.912 115.703,59.272 
						120.466,57.513 115.613,56.017 120.691,56.097 116.705,52.95 121.412,54.861 118.831,50.486 122.531,53.966 121.704,48.955 
						123.896,53.537 124.937,48.565 125.326,53.628 128.091,49.37 					"/>
					<path fill="#050505" d="M127.065,57.408c0,1.49-1.212,2.703-2.706,2.703c-1.492,0-2.704-1.213-2.704-2.703
						c0-1.496,1.212-2.706,2.704-2.706C125.853,54.702,127.065,55.912,127.065,57.408z"/>
				</g>
				<path fill="#DD002A" d="M123.723,179.607c-29.288,0-38.342-13.639-38.351-13.652l1.053,19.381c0,0,8.804,13.283,37.315,13.283
					c23.973,0,38.552-13.283,38.552-13.283l1.054-19.381C163.33,165.97,148.349,179.607,123.723,179.607z"/>
				<path fill="#050505" d="M124.358,198.369c0.714-2.52,1.146-5.764,1.146-9.305s-0.432-6.785-1.146-9.305
					c-0.712,2.52-1.143,5.764-1.143,9.305S123.646,195.849,124.358,198.369z"/>
				<circle fill="#930023" cx="131.296" cy="189.66" r="2.68"/>
				<circle fill="#FFFFFF" cx="130.7" cy="189.064" r="2.68"/>
				<path fill="#FFB000" d="M133.843,215.753h-18.967c-3.01,0-5.458,2.449-5.458,5.459v13.494c0,3.01,2.448,5.459,5.458,5.459
					h18.967c3.01,0,5.457-2.449,5.457-5.459v-13.494C139.3,218.203,136.853,215.753,133.843,215.753z M132.366,223.328v9.264
					c0,0.553-0.45,1.002-1,1.002h-14.011c-0.553,0-1.001-0.449-1.001-1.002v-9.264c0-0.553,0.448-1.002,1.001-1.002h14.011
					C131.916,222.326,132.366,222.775,132.366,223.328z"/>
				<polygon fill="#C98C28" points="113.824,102.546 124.31,109.934 124.36,109.884 124.41,109.934 134.896,102.546 				"/>
				<g>
					<path fill="#4F1907" d="M124.359,108.296c0,0-8.834-10.521-29.578-5.359c-20.744,5.16-31.363,30.867-31.363,30.867
						s11.314,8.438,28.981,6.154C110.066,137.677,124.458,118.817,124.359,108.296z"/>
					<path fill="#4F1907" d="M124.36,108.296c0,0,8.833-10.521,29.577-5.359c20.744,5.16,31.365,30.867,31.365,30.867
						s-11.314,8.438-28.982,6.154C138.652,137.677,124.261,118.817,124.36,108.296z"/>
				</g>
				<polygon fill="#DD002A" points="167.351,198.519 169.183,198.519 165.962,202.511 162.711,198.519 164.556,198.519 
					164.556,196.716 157.615,196.716 157.615,198.519 160.365,198.519 165,204.218 165,207.779 162.307,207.779 162.307,209.587 
					169.61,209.587 169.61,207.779 166.916,207.779 166.916,204.218 171.55,198.519 174.292,198.519 174.292,196.716 
					167.351,196.716 				"/>
			</g>
		</g>
	</g>
</g>
</svg>
