<?xml version="1.0" encoding="utf-8"?>
<!DOCTYPE svg PUBLIC "-//W3C//DTD SVG 1.1//EN" "http://www.w3.org/Graphics/SVG/1.1/DTD/svg11.dtd">
<svg version="1.1" id="Camada_1" xmlns="http://www.w3.org/2000/svg" xmlns:xlink="http://www.w3.org/1999/xlink" x="0px" y="0px"
	 width="338.924px" height="297.531px" viewBox="0 0 338.924 297.531" enable-background="new 0 0 338.924 297.531"
	 xml:space="preserve">
<g>
	<g>
		<polygon fill="#050505" points="27.708,265.385 32.924,265.385 23.753,276.739 14.506,265.385 19.757,265.385 19.757,260.251 
			0,260.251 0,265.385 7.83,265.385 21.017,281.6 21.017,291.731 13.356,291.731 13.356,296.879 34.136,296.879 34.136,291.731 
			26.47,291.731 26.47,281.6 39.661,265.385 47.465,265.385 47.465,260.251 27.708,260.251 		"/>
		<polygon fill="#050505" points="89.07,291.629 66.316,291.629 66.316,280.211 85.363,280.211 85.363,274.979 66.316,274.979 
			66.316,265.508 88.72,265.508 88.72,272.849 93.848,272.849 93.848,260.251 53.702,260.251 53.702,265.385 60.866,265.385 
			60.866,291.731 53.702,291.731 53.702,296.879 94.225,296.879 94.225,283.765 89.07,283.765 		"/>
		<path fill="#050505" d="M143.474,278.565c0,4.534-1.362,7.875-4.171,10.21c-2.83,2.354-7.191,3.547-12.959,3.547
			c-5.785,0-10.173-1.194-13.039-3.549c-2.837-2.333-4.213-5.674-4.213-10.208c0-4.483,1.38-7.811,4.218-10.17
			c2.866-2.38,7.251-3.585,13.034-3.585c5.771,0,10.132,1.192,12.957,3.543C142.111,270.694,143.474,274.036,143.474,278.565
			 M142.493,264.116c-2.061-1.543-4.518-2.695-7.29-3.428c-2.734-0.719-5.719-1.084-8.859-1.084c-2.091,0-4.131,0.157-6.056,0.475
			c-1.939,0.323-3.778,0.823-5.472,1.487c-1.721,0.685-3.293,1.543-4.672,2.554c-1.415,1.028-2.645,2.275-3.653,3.705
			c-1.001,1.427-1.784,3.048-2.329,4.818c-0.548,1.774-0.826,3.765-0.826,5.922c0,3.244,0.604,6.104,1.794,8.498
			c1.191,2.389,2.861,4.391,4.967,5.955c2.062,1.538,4.53,2.689,7.339,3.423c2.746,0.724,5.744,1.09,8.908,1.09
			c3.147,0,6.13-0.366,8.859-1.09c2.788-0.733,5.242-1.888,7.29-3.423c2.086-1.564,3.749-3.566,4.938-5.957
			c1.191-2.385,1.794-5.248,1.794-8.496c0-3.25-0.603-6.107-1.794-8.495C146.242,267.685,144.579,265.681,142.493,264.116"/>
		<polygon fill="#050505" points="187.078,290.338 167.577,260.254 155.292,260.254 155.292,265.383 162.457,265.383 
			162.457,291.731 155.292,291.731 155.292,296.879 175.047,296.879 175.047,291.731 167.907,291.731 167.907,270.382 
			184.947,296.879 188.994,296.879 206.01,270.499 206.01,291.731 198.848,291.731 198.848,296.879 218.605,296.879 
			218.605,291.731 211.438,291.731 211.438,265.383 218.605,265.383 218.605,260.254 206.264,260.254 		"/>
		<path fill="#050505" d="M247.006,280.072l6.857-13.12l6.883,13.12H247.006z M256.418,260.254h-16.5v5.131h8.701l-13.76,26.346
			h-7.047v5.151h19.76v-5.151h-6.707l3.396-6.505h19.225l3.346,6.505h-6.67v5.151h19.783v-5.151h-7.051L256.418,260.254z"/>
		<polygon fill="#050505" points="319.17,260.254 319.17,265.385 326.334,265.385 326.334,288.867 298.232,260.254 285.992,260.254 
			285.992,265.385 293.158,265.385 293.158,291.731 285.992,291.731 285.992,296.882 305.754,296.882 305.754,291.731 
			298.611,291.731 298.611,268.359 326.711,296.882 331.787,296.882 331.787,265.385 338.924,265.385 338.924,260.254 		"/>
	</g>
	<path fill="#020202" d="M169.461,235.02c-54.69,0-99.186-44.88-99.186-100.045c0-55.163,44.495-100.041,99.186-100.041
		c54.691,0,99.188,44.878,99.188,100.041C268.648,190.14,224.152,235.02,169.461,235.02z M169.461,39.934
		c-51.934,0-94.186,42.635-94.186,95.041c0,52.408,42.252,95.045,94.186,95.045c51.936,0,94.188-42.637,94.188-95.045
		C263.648,82.569,221.396,39.934,169.461,39.934z"/>
	<g>
		<defs>
			<path id="SVGID_1_" d="M223.586,54.141v-0.256l5.641-28.21c0,0-12.537-28.837-54.537-25.389
				c-42.002,3.448-47.33,13.165-54.226,24.762l4.074,18.493l-7.836,5.015c0,0-2.821-8.463-7.209-8.776c0,0,6.582-9.403,1.881-15.985
				c-4.702-6.583-29.777-5.956-39.494,27.269c0,0-1.253-10.03-5.328-10.03s-19.12,5.329-15.045,21
				c4.074,15.672,18.18,20.374,22.881,22.254c0,0,2.193,2.821,1.254,6.582c-0.494,1.975-11.868,37.133-2.368,69.633
				c7.095,24.27,29.774,45.357,29.774,45.357c17.322,16.523,40.693,26.658,66.413,26.658c53.395,0,96.688-43.67,96.688-97.545
				C266.148,101.338,249.266,71.676,223.586,54.141z"/>
		</defs>
		<clipPath id="SVGID_2_">
			<use xlink:href="#SVGID_1_"  overflow="visible"/>
		</clipPath>
		<g clip-path="url(#SVGID_2_)">
			<path fill="#F4CF8C" d="M281.574,280.104c0,0,1.611,21.884-4.326,26.259c0,0-1.25,8.75-9.688,9.061c0,0-1.875,5.002-10.625,2.5
				c-8.75-2.5-16.25-28.125-16.25-28.125S267.15,267.284,281.574,280.104z"/>
			<path fill="#050505" d="M203.561,170.528c0,0,70.271,11.314,78.014,109.576c0,0-13.102,8.337-26.799,8.933
				C254.775,289.038,255.967,213.407,203.561,170.528z"/>
			<g>
				<path fill="#DD002A" d="M272.746,236.849c-3.832,1.867-11.969,5.08-24.627,6.383c0.445,1.627,0.863,3.234,1.25,4.816
					c4.988-0.754,14.07-2.602,24.814-6.932C273.719,239.667,273.242,238.239,272.746,236.849z"/>
				<path fill="#DD002A" d="M244.652,231.989c0.549,1.59,1.068,3.17,1.559,4.734c4.617-0.469,14.965-1.93,24.133-6.082
					c-0.639-1.537-1.301-3.027-1.977-4.486C264.996,227.708,257.523,230.468,244.652,231.989z"/>
				<path fill="#DD002A" d="M281.574,280.104c-0.709-8.996-1.945-17.256-3.602-24.852c-5.326,3.303-13.848,7.314-25.383,8.855
					c2.342,14.863,2.186,24.929,2.186,24.929C268.473,288.442,281.574,280.104,281.574,280.104z"/>
			</g>
			<g>
				<g>
					<circle fill="#F4CF8C" cx="131.07" cy="96.11" r="15.072"/>
					<circle fill="#F4CF8C" cx="131.07" cy="96.11" r="15.072"/>
					<path fill="#F4CF8C" d="M115.998,96.11c0,0.463,0.023,0.92,0.065,1.373c1.074-0.456,2.218-1.05,3.438-1.831
						c7.143-4.563,7.354-10.004,5.759-13.452C119.82,84.474,115.998,89.845,115.998,96.11z"/>
					<circle fill="#F4CF8C" cx="123.283" cy="96.11" r="7.285"/>
					<g>
						<path fill="#D8AF6F" d="M123.283,88.825c-0.296,0-0.585,0.022-0.871,0.057c2.84,0.431,5.042,3.5,5.042,7.228
							c0,3.729-2.202,6.797-5.042,7.229c0.286,0.034,0.575,0.057,0.871,0.057c4.023,0,7.285-3.262,7.285-7.286
							C130.568,92.087,127.307,88.825,123.283,88.825z"/>
						<path fill="#F4CF8C" d="M122.412,88.882c-0.226-0.035-0.453-0.057-0.686-0.057c-3.164,0-5.729,3.262-5.729,7.285
							C115.998,92.382,118.8,89.313,122.412,88.882z"/>
						<path fill="#F4CF8C" d="M115.998,96.11c0,4.024,2.564,7.286,5.729,7.286c0.232,0,0.46-0.023,0.686-0.057
							C118.8,102.908,115.998,99.839,115.998,96.11z"/>
					</g>
				</g>
				<g>
					<circle fill="#F4CF8C" cx="219.277" cy="96.11" r="15.072"/>
					<circle fill="#F4CF8C" cx="219.277" cy="96.11" r="15.072"/>
					<circle fill="#F4CF8C" cx="227.063" cy="96.11" r="7.286"/>
					<g>
						<path fill="#D8AF6F" d="M222.893,96.11c0-3.728,2.203-6.797,5.041-7.228c-0.285-0.035-0.574-0.057-0.871-0.057
							c-4.023,0-7.285,3.262-7.285,7.285c0,4.024,3.262,7.286,7.285,7.286c0.297,0,0.586-0.023,0.871-0.057
							C225.096,102.908,222.893,99.839,222.893,96.11z"/>
						<path fill="#F4CF8C" d="M234.35,96.11c0-4.023-2.566-7.285-5.729-7.285c-0.232,0-0.461,0.022-0.688,0.057
							C231.547,89.313,234.35,92.382,234.35,96.11z"/>
						<path fill="#F4CF8C" d="M227.934,103.339c0.227,0.034,0.455,0.057,0.688,0.057c3.162,0,5.729-3.262,5.729-7.286
							C234.35,99.839,231.547,102.908,227.934,103.339z"/>
					</g>
				</g>
			</g>
			<g>
				<path fill="#F4CF8C" d="M88.966,105.74c0,0,14.375,1.875,12.5-12.5c0,0,5,7.812,16.249,0.625
					c11.251-7.187,5.312-16.562,2.188-16.874c-3.125-0.313-7.5-3.751-18.438,7.5l-6.25-14.375l7.188-9.375
					c0,0,0.987,13.542,11.431,9.74c10.444-3.802,2.632-26.927-6.743-26.927S90.216,53.24,90.216,53.24s3.125-8.749,16.875-15.937
					c0,0,5.312-3.125,2.187-10.938c-3.124-7.812-32.812-2.188-37.499,35.937c0,0-5.312-5-4.062-12.812s-15.312-5.625-12.188,11.25
					c3.125,16.875,19.376,20.312,19.376,20.312s5.517,8.926,1.562,19.062C76.466,100.115,82.716,107.928,88.966,105.74z"/>
				<g>
					<path fill="#F4CF8C" d="M117.715,93.865c11.251-7.187,5.312-16.562,2.188-16.874c-1.921-0.192-4.318-1.561-8.419,0.024
						l3.684,7.585c0,0-0.757,10.849-12.867,8.073c0,0-0.127,0.427-0.443,1.077C103.229,95.359,108.268,99.902,117.715,93.865z"/>
					<path fill="#F4CF8C" d="M101.57,94.298c-1.872,3.36-8.364,9.813-23.969,1.769c-0.297,1.406-0.578,2.656-1.136,4.049
						c0,0,6.25,7.813,12.5,5.625C88.966,105.74,102.612,107.514,101.57,94.298z"/>
				</g>
				<path fill="#F4CF8C" d="M102.403,60.741c0,0,0.987,13.542,11.431,9.74c4.271-1.555,5.488-6.341,4.795-11.456
					c-2.606,2.697-10.653,9.542-13.805-4.954L90.442,70.723l-11.354,6.56l14.129-3.532l8.248,10.74l-6.25-14.375L102.403,60.741z"/>
				<path fill="#F4CF8C" d="M92.568,49.178c2.327-3.201,6.707-7.79,14.522-11.875c0,0,5.312-3.125,2.187-10.938
					c-0.053-0.134-0.116-0.263-0.186-0.389c-0.741,2.364-2.188,5.18-5.024,7.152c-5.804,4.038-26.492,18.417-19.933,40.116
					C84.135,73.246,81.48,59.82,92.568,49.178z"/>
				<path fill="#F4CF8C" d="M71.482,61.997c-1.098-1.191-4.837-5.816-3.767-12.506c0.494-3.086-1.795-4.604-4.549-4.28
					c-0.49,8.401,0.667,25.425,17.184,30.305C80.351,75.516,74.095,72.543,71.482,61.997z"/>
			</g>
			<path fill="#050505" d="M76.466,100.115l12.5,5.625c0,0-11.251,61.874,47.5,64.374c0,0,0.413,39.797-35.836,39.174
				C100.63,209.288,52.72,171.231,76.466,100.115z"/>
			<path fill="#DD002A" d="M91.44,139.399c-0.191-0.566-0.372-1.135-0.543-1.703c-0.003-0.01-0.007-0.021-0.011-0.033
				c-2.776,1.439-10.246,4.67-20.958,4.564c0.049,1.381,0.13,2.736,0.231,4.076c5.381,0.016,14.255-0.711,21.998-4.887
				c-0.006-0.014-0.011-0.029-0.016-0.043c-0.223-0.584-0.431-1.17-0.631-1.758C91.487,139.544,91.464,139.472,91.44,139.399z"/>
			<path fill="#DD002A" d="M95.401,148.265c-0.296-0.514-0.579-1.031-0.853-1.553c-0.002-0.002-0.003-0.004-0.004-0.006
				c-3.2,1.516-12.116,5.143-23.809,5.152c0.205,1.537,0.444,3.045,0.713,4.523c6.359,0.006,15.767-1.123,24.961-6.447
				c-0.01-0.014-0.018-0.029-0.026-0.043c-0.322-0.506-0.63-1.018-0.929-1.533C95.438,148.327,95.42,148.296,95.401,148.265z"/>
			<path fill="#DD002A" d="M76.466,100.115c-3.394,9.297-4.824,17.829-5.949,25.829c5.943,1.146,11.942,1.254,17.81-2.539
				c-0.747-10.02,0.64-17.665,0.64-17.665L76.466,100.115z"/>
			<g>
				<g>
					<path fill="#050505" d="M94.633,258.868l76.568,98.746c0,0,2.994,1.07,4.277-0.428v-98.318H94.633z"/>
				</g>
				<g>
					<path fill="#050505" d="M255.715,258.868l-76.57,98.746c0,0-2.992,1.07-4.277-0.428v-98.318H255.715z"/>
				</g>
			</g>
			<path fill="#050505" d="M210.42,168.544h-35.246h-35.248c-75.035,32.951-57.566,157.218-57.566,157.218h93.299v-56.826
				l5.162,56.826h87.168C267.988,325.762,285.457,201.495,210.42,168.544z"/>
			<path fill="#F4CF8C" d="M240.686,289.799c0,0,7.5,25.625,16.25,28.125c8.75,2.502,10.625-2.5,10.625-2.5
				c2.465-0.09,4.311-0.902,5.697-2.004c0.596-8.994,1-22.18-0.041-37.093C258.795,274.394,240.686,289.799,240.686,289.799z"/>
			<path fill="#930023" d="M273.646,284.2c-1.055-26.695-6.416-61.053-24.4-86.768c-21.543-23.008-45.686-26.904-45.686-26.904
				c52.406,42.879,51.215,118.509,51.215,118.509C261.781,288.733,268.625,286.403,273.646,284.2z"/>
			<path fill="#DD002A" d="M85.395,245.972c-0.243,1.143-0.476,2.287-0.697,3.428c20.736-7.637,53.545-12.57,90.477-12.57
				s69.738,4.934,90.475,12.57c-0.221-1.141-0.453-2.285-0.695-3.428c-20.771-7.494-53.26-12.318-89.779-12.318
				C138.653,233.653,106.164,238.478,85.395,245.972z"/>
			<path fill="#DD002A" d="M89.502,230.278c-0.324,1.027-0.637,2.059-0.939,3.088c20.826-6.865,51.896-11.225,86.611-11.225
				c34.715,0,65.785,4.359,86.609,11.225c-0.301-1.029-0.615-2.061-0.938-3.088c-20.818-6.689-51.479-10.918-85.672-10.918
				C140.979,219.36,110.318,223.589,89.502,230.278z"/>
			<path fill="#DD002A" d="M118.669,182.185c-16.069,20.713-14.336,45.91-14.336,45.91l4.368-1.984
				c-1.374-21.98,8.659-39.393,14.97-48.037C121.938,179.388,120.271,180.759,118.669,182.185z"/>
			<path fill="#DD002A" d="M226.676,178.073c6.311,8.645,16.344,26.057,14.971,48.037l4.367,1.984c0,0,1.734-25.197-14.336-45.908
				C230.078,180.759,228.41,179.388,226.676,178.073z"/>
			<path fill="#DD002A" d="M175.658,268.937l5.162,56.826h87.168c0,0,5.363-38.156-2.621-77.789l-4.459-1.449
				c7.301,19.955,3.895,73.972,3.895,73.972h-79.326l-7.471-83.851h-6.083l-0.804,83.851H86.441
				c-3.893-37.958,2.19-73.728,2.19-73.728l-3.607,0.984c-8.049,39.71-2.665,78.009-2.665,78.009h93.299V268.937z"/>
			<path fill="#F4CF8C" d="M214.162,165.954c0,0-14.984,13.652-39.625,13.652c-29.303,0-38.352-13.652-38.352-13.652l-5.188-95.474
				h88.35L214.162,165.954z"/>
			<path fill="#F4CF8C" d="M214.162,165.954c0,0-14.984,13.652-39.625,13.652c-29.303,0-38.352-13.652-38.352-13.652l-5.188-95.474
				h88.35L214.162,165.954z"/>
			<path fill="#F4CF8C" d="M214.162,165.954c0,0-14.984,13.652-39.625,13.652c-29.303,0-38.352-13.652-38.352-13.652l-5.188-95.474
				h88.35L214.162,165.954z"/>
			<path fill="#B27D30" d="M186.391,86.757l2.182-2.778c0,0,7.941-0.397,20.15,6.153c0,0-8.836-10.918-22.137-7.246l0.4-2.382
				l-3.773,6.154c0,0,1.389,8.238-0.098,14.193h-15.883c-1.489-5.956-0.099-14.193-0.099-14.193l-3.771-6.154l0.396,2.382
				c-13.3-3.672-22.134,7.246-22.134,7.246c12.209-6.55,20.149-6.153,20.149-6.153l2.183,2.778
				c-4.268,8.536-14.292,9.231-14.292,9.231c10.521,1.092,14.393-5.458,14.393-5.458c-0.596,5.161,0.495,11.957,0.495,11.957
				l10.57,7.448l0.051-0.05l0.051,0.05l10.57-7.448c0,0,1.09-6.795,0.494-11.957c0,0,3.871,6.551,14.393,5.458
				C200.682,95.988,190.656,95.293,186.391,86.757z"/>
			<ellipse fill="#050505" cx="175.173" cy="117.675" rx="14.491" ry="8.685"/>
			<path fill="#DD002A" d="M175.174,126.796c3.279,0,6.303-1.088,8.73-2.189c-1.701-1.84-4.973-3.088-8.73-3.088
				c-3.76,0-7.031,1.248-8.732,3.088C168.87,125.708,171.895,126.796,175.174,126.796z"/>
			<path fill="#FFFFFF" d="M175.174,108.991c-8.004,0-14.491,3.889-14.491,8.685c0,0.251,0.021,0.499,0.056,0.745h28.869
				c0.035-0.247,0.057-0.494,0.057-0.745C189.664,112.879,183.176,108.991,175.174,108.991z"/>
			<path fill="#C98C28" d="M175.174,132.017c-2.941,0-5.676-0.525-7.961-1.428c1.831,2.373,4.711,3.91,7.961,3.91
				c3.248,0,6.129-1.537,7.959-3.91C180.85,131.491,178.115,132.017,175.174,132.017z"/>
			<path fill="#C98C28" d="M175.174,157.851c-5.024,0-9.696-0.9-13.599-2.443c3.13,4.055,8.048,6.678,13.599,6.678
				s10.469-2.623,13.598-6.678C184.867,156.95,180.197,157.851,175.174,157.851z"/>
			<polygon fill="#CEA063" points="131.851,86.159 218.496,86.159 219.348,70.48 130.998,70.48 			"/>
			<path fill="#050505" d="M219.543,70.48l7.752-44.809c0,0-11.691-22.943-51.865-22.943c-48.833,0-52.376,22.943-52.376,22.943
				l7.751,44.809H219.543z"/>
			<polygon fill="#DD002A" points="127.48,51.264 130.805,70.48 219.543,70.48 222.867,51.264 			"/>
			<polygon fill="#050505" points="232.939,81.199 117.407,81.199 113.834,70.48 236.512,70.48 			"/>
			<g>
				<circle fill="#050505" cx="175.173" cy="57.406" r="14.286"/>
				<path fill="#DD002A" d="M175.174,69.944c-6.916,0-12.541-5.624-12.541-12.534c0-6.916,5.625-12.541,12.541-12.541
					c6.914,0,12.539,5.625,12.539,12.541C187.713,64.32,182.088,69.944,175.174,69.944z M175.174,46.507
					c-6.012,0-10.901,4.891-10.901,10.902c0,6.007,4.89,10.895,10.901,10.895c6.01,0,10.902-4.888,10.902-10.895
					C186.076,51.398,181.184,46.507,175.174,46.507z"/>
				<path fill="#DD002A" d="M175.174,66.457c-4.992,0-9.053-4.059-9.053-9.049c0-4.991,4.061-9.052,9.053-9.052
					c4.99,0,9.053,4.061,9.053,9.052C184.227,62.397,180.164,66.457,175.174,66.457z M175.174,49.539
					c-4.34,0-7.871,3.53-7.871,7.868c0,4.337,3.531,7.866,7.871,7.866c4.338,0,7.869-3.529,7.869-7.866
					C183.043,53.069,179.512,49.539,175.174,49.539z"/>
				<polygon fill="#DD002A" points="177.438,54.232 181.557,51.259 178.432,55.263 183.346,53.979 178.986,56.584 184.031,57.161 
					179.025,58.017 183.521,60.377 178.545,59.365 181.883,63.191 177.609,60.449 179.342,65.223 176.344,61.123 176.236,66.2 
					174.922,61.293 172.988,65.99 173.535,60.939 170.033,64.618 172.368,60.109 167.773,62.275 171.582,58.912 166.516,59.272 
					171.279,57.513 166.427,56.018 171.504,56.097 167.519,52.95 172.225,54.86 169.645,50.485 173.344,53.966 172.518,48.954 
					174.709,53.536 175.75,48.565 176.139,53.628 178.906,49.37 				"/>
				<path fill="#050505" d="M177.879,57.407c0,1.49-1.213,2.703-2.707,2.703c-1.49,0-2.703-1.213-2.703-2.703
					c0-1.496,1.213-2.706,2.703-2.706C176.666,54.702,177.879,55.911,177.879,57.407z"/>
			</g>
			<path fill="#DD002A" d="M174.537,179.606c-29.288,0-38.342-13.639-38.351-13.652l1.053,19.381c0,0,8.804,13.283,37.315,13.283
				c23.973,0,38.553-13.283,38.553-13.283l1.053-19.381C214.145,165.97,199.164,179.606,174.537,179.606z"/>
			<path fill="#050505" d="M175.172,198.368c0.715-2.52,1.145-5.764,1.145-9.305s-0.43-6.785-1.145-9.305
				c-0.713,2.52-1.143,5.764-1.143,9.305S174.459,195.849,175.172,198.368z"/>
			<circle fill="#930023" cx="182.109" cy="189.659" r="2.68"/>
			<circle fill="#FFFFFF" cx="181.514" cy="189.063" r="2.68"/>
			<path fill="#FFB000" d="M184.656,215.753h-18.967c-3.009,0-5.457,2.449-5.457,5.459v13.494c0,3.01,2.448,5.459,5.457,5.459
				h18.967c3.01,0,5.457-2.449,5.457-5.459v-13.494C190.113,218.202,187.666,215.753,184.656,215.753z M183.18,223.327v9.264
				c0,0.553-0.449,1.002-1,1.002h-14.012c-0.552,0-1-0.449-1-1.002v-9.264c0-0.553,0.448-1.002,1-1.002h14.012
				C182.73,222.325,183.18,222.774,183.18,223.327z"/>
			<polygon fill="#C98C28" points="164.638,102.546 175.123,109.934 175.174,109.884 175.225,109.934 185.709,102.546 			"/>
			<g>
				<path fill="#4F1907" d="M175.172,108.296c0,0-8.833-10.521-29.577-5.36s-31.364,30.867-31.364,30.867s11.315,8.438,28.982,6.154
					C160.88,137.677,175.273,118.817,175.172,108.296z"/>
				<path fill="#4F1907" d="M175.174,108.296c0,0,8.834-10.521,29.578-5.36c20.742,5.161,31.363,30.867,31.363,30.867
					s-11.314,8.438-28.982,6.154C189.467,137.677,175.074,118.817,175.174,108.296z"/>
			</g>
			<polygon fill="#DD002A" points="218.164,198.519 219.996,198.519 216.775,202.511 213.525,198.519 215.371,198.519 
				215.371,196.716 208.43,196.716 208.43,198.519 211.18,198.519 215.812,204.218 215.812,207.778 213.121,207.778 
				213.121,209.587 220.424,209.587 220.424,207.778 217.73,207.778 217.73,204.218 222.363,198.519 225.105,198.519 
				225.105,196.716 218.164,196.716 			"/>
		</g>
	</g>
</g>
</svg>
