<svg xmlns="http://www.w3.org/2000/svg" width="16" height="16" viewBox="0 0 16 16"><path fill="#050505" d="M13.787 11.72l1.01-5.845s-1.523-2.992-6.763-2.992c-6.37 0-6.832 2.992-6.832 2.992l1.01 5.845h11.575z"/><path fill="#DD002A" d="M1.78 9.213l.433 2.507h11.574l.433-2.507"/><path fill="#050505" d="M15.534 13.117H.466L0 11.72h16"/><circle fill="#050505" cx="8" cy="10.015" r="1.863"/><path fill="#DD002A" d="M8 11.65c-.902 0-1.636-.734-1.636-1.636 0-.902.734-1.636 1.636-1.636.9 0 1.636.733 1.636 1.636 0 .902-.735 1.635-1.636 1.635zm0-3.057c-.784 0-1.422.64-1.422 1.422 0 .784.638 1.42 1.422 1.42s1.422-.636 1.422-1.42c0-.784-.638-1.422-1.422-1.422z"/><path fill="#DD002A" d="M8 11.195c-.65 0-1.18-.53-1.18-1.18 0-.652.53-1.182 1.18-1.182.65 0 1.18.53 1.18 1.18 0 .652-.53 1.182-1.18 1.182zm0-2.207c-.566 0-1.026.46-1.026 1.026 0 .565.46 1.025 1.026 1.025s1.026-.46 1.026-1.026c0-.566-.46-1.026-1.026-1.026z"/><path fill="#DD002A" d="M8.295 9.6l.538-.387-.408.522.64-.168-.568.34.658.075-.653.112.587.308-.65-.132.435.5-.557-.36.225.624-.39-.535-.014.66-.173-.64-.252.614.07-.658-.455.48.304-.59-.6.283.498-.44-.66.048.62-.23-.633-.194.66.01-.52-.41.615.25-.336-.573.48.455-.106-.653.285.598.135-.65.05.66.362-.554"/><circle fill="#050505" cx="8" cy="10.015" r=".353"/></svg>