<svg xmlns="http://www.w3.org/2000/svg" width="16" height="16" viewBox="0 0 16 16"><path fill="#050505" d="M13.787 11.72l1.011-5.845s-1.524-2.992-6.764-2.992c-6.369 0-6.832 2.992-6.832 2.992l1.011 5.845h11.574z"/><path fill="#DD002A" d="M1.78 9.213l.433 2.507h11.574l.433-2.507z"/><path fill="#050505" d="M15.534 13.117h-15.068l-.466-1.397h16z"/><circle fill="#050505" cx="8" cy="10.015" r="1.863"/><path fill="#DD002A" d="M8 11.649c-.902 0-1.636-.733-1.636-1.635s.734-1.636 1.636-1.636c.901 0 1.636.733 1.636 1.636 0 .902-.735 1.635-1.636 1.635zm0-3.056c-.784 0-1.422.639-1.422 1.422 0 .784.638 1.421 1.422 1.421s1.422-.637 1.422-1.421-.638-1.422-1.422-1.422zM8 11.195c-.651 0-1.181-.53-1.181-1.181s.53-1.181 1.181-1.181 1.181.529 1.181 1.181c0 .651-.53 1.181-1.181 1.181zm0-2.207c-.566 0-1.026.46-1.026 1.026 0 .565.46 1.025 1.026 1.025s1.026-.46 1.026-1.025c0-.566-.46-1.026-1.026-1.026zM8.295 9.601l.538-.388-.408.522.641-.168-.569.34.658.075-.653.112.587.308-.649-.132.435.5-.557-.359.225.623-.39-.535-.014.662-.172-.64-.252.613.071-.658-.456.479.304-.588-.599.282.497-.438-.661.047.621-.23-.633-.194.662.01-.52-.41.614.249-.336-.572.482.454-.107-.653.285.598.136-.649.051.66.361-.555z"/><circle fill="#050505" cx="8" cy="10.015" r=".353"/></svg>