<svg xmlns="http://www.w3.org/2000/svg" width="328" height="182" viewBox="0 0 328 182"><path d="M64.121 61.908s-14.759-13.971-31.287.197c0 0 15.053-2.715 15.349 6.493.196 6.1-7.025 6.145-15.151 1.574-6.298-3.542-23.417-6.494-33.059 17.119 0 0 21.056-15.938 34.239 8.658 0 0-3.321-7.722-20.434-6.747 0 0 16.104 1.828 18.072 14.618 1.968 12.789 15.741 26.761 33.058 15.938 17.317-10.822 13.775-48.602-.787-57.85z" fill="#FFCE00"/><path d="M129.42 151.043s-14.042 21.666-50.152-2.006c0 0 42.529 65.398 93.083 11.637 0 0-22.54-16.572-44.37-10.293" fill="#BC002D"/><path d="M172.351 160.674s-22.54-16.572-44.37-10.293l1.439.662s-2.061 3.174-6.626 5.766c12.24 5.639 25.739 9.939 40.117 12.643 3.11-2.487 6.259-5.395 9.44-8.778z" fill="#BCBEC0"/><path d="M129.421 30.956s-14.043-21.664-50.152 2.007c0 0 42.529-65.399 93.082-11.636 0 0-22.539 16.57-44.37 10.291" fill="#DD002A"/><linearGradient id="a" gradientUnits="userSpaceOnUse" x1="1397.51" y1="1024.181" x2="1485.642" y2="1024.181" gradientTransform="matrix(0 1 -1 0 1114.705 -1350.575)"><stop offset="0" stop-color="#F1F2F2"/><stop offset="1" stop-color="#D1D3D4"/></linearGradient><path d="M70.757 134.506c2.281.365 4.618.561 7.001.561 24.337 0 44.065-19.729 44.065-44.065s-19.729-44.066-44.064-44.066c-2.384 0-4.721.195-7.002.56 0 0-11.531 10.561-11.531 43.507 0 32.942 11.531 43.503 11.531 43.503z" fill="url(#a)"/><path d="M68.957 91c0 26.885 7.277 39.627 10.571 44.021 23.515-.932 42.295-20.277 42.295-44.021s-18.779-43.09-42.294-44.021c-3.294 4.393-10.572 17.135-10.572 44.021z" fill="#BDC0C2"/><path d="M79.79 91c0 24.314 5.951 37.057 9.527 42.523 18.728-5.08 32.506-22.188 32.506-42.522 0-20.336-13.778-37.444-32.506-42.523-3.576 5.465-9.527 18.209-9.527 42.522z" fill="#9EA3A5"/><linearGradient id="b" gradientUnits="userSpaceOnUse" x1="1368.272" y1="907.439" x2="1514.88" y2="907.439" gradientTransform="matrix(0 1 -1 0 1114.705 -1350.575)"><stop offset="0" stop-color="#F1F2F2"/><stop offset="1" stop-color="#D1D3D4"/></linearGradient><path d="M101.289 140.143c24.645 15.074 56.365 24.162 91 24.162 63.87 0 117.887-30.855 135.738-73.304-17.852-42.449-71.868-73.305-135.737-73.305-34.635 0-66.356 9.087-91 24.162 0 0-14.786 17.142-14.786 49.143 0 31.999 14.785 49.142 14.785 49.142z" fill="url(#b)"/><linearGradient id="c" gradientUnits="userSpaceOnUse" x1="1478.607" y1="907.439" x2="1508.941" y2="907.439" gradientTransform="matrix(0 1 -1 0 1114.705 -1350.575)"><stop offset="0" stop-color="#F1F2F2"/><stop offset="1" stop-color="#D1D3D4"/></linearGradient><path d="M101.289 140.143c24.645 15.074 56.365 24.162 91 24.162 63.87 0 117.887-30.855 135.738-73.304-17.852-42.449-71.868-73.305-135.737-73.305-34.635 0-66.356 9.087-91 24.162 0 0-14.786 17.142-14.786 49.143 0 31.999 14.785 49.142 14.785 49.142z" fill="url(#c)"/><linearGradient id="d" gradientUnits="userSpaceOnUse" x1="1411.745" y1="907.439" x2="1476.065" y2="907.439" gradientTransform="matrix(0 1 -1 0 1114.705 -1350.575)"><stop offset="0" stop-color="#fff"/><stop offset="1" stop-color="#fff" stop-opacity="0"/></linearGradient><path d="M328.027 91.001c-1.501-3.57-3.28-7.05-5.276-10.444-24.584-23.22-75.779-39.188-134.959-39.188-36.072 0-69.146 5.951-95.066 15.844-3.268 8.162-6.222 19.486-6.222 33.789 0 14.302 2.954 25.626 6.222 33.788 25.921 9.893 58.994 15.844 95.066 15.844 59.18 0 110.375-15.969 134.959-39.189 1.996-3.394 3.775-6.875 5.276-10.444z" opacity=".6" fill="url(#d)"/><path d="M101.289 140.143c6.436 3.936 13.364 7.453 20.691 10.518-20.802-39.416-20.804-79.905 0-119.32-7.327 3.065-14.255 6.581-20.69 10.519 0 0-14.786 17.142-14.786 49.143 0 31.997 14.785 49.14 14.785 49.14z" fill="#CF0227"/><path d="M277.532 91.001c0 17.538 4.308 33.515 11.369 45.522 18.024-12.254 31.707-27.881 39.126-45.522-7.419-17.643-21.101-33.271-39.126-45.525-7.06 12.007-11.369 27.984-11.369 45.525z" fill="#BD0223"/><linearGradient id="e" gradientUnits="userSpaceOnUse" x1="1474.386" y1="930.249" x2="1452.086" y2="907.95" gradientTransform="matrix(0 1 -1 0 1114.705 -1350.575)"><stop offset="0" stop-color="#fff"/><stop offset="1" stop-color="#D1D3D4"/></linearGradient><circle cx="214.257" cy="94.01" r="44.134" fill="url(#e)"/><linearGradient id="f" gradientUnits="userSpaceOnUse" x1="1479.652" y1="897.439" x2="1406.602" y2="897.439" gradientTransform="matrix(0 1 -1 0 1114.705 -1350.575)"><stop offset="0" stop-color="#939598"/><stop offset="1" stop-color="#D1D3D4"/></linearGradient><circle cx="217.266" cy="91" r="41.125" fill="url(#f)"/><linearGradient id="g" gradientUnits="userSpaceOnUse" x1="1477.796" y1="897.439" x2="1408.309" y2="897.439" gradientTransform="matrix(0 1 -1 0 1114.705 -1350.575)"><stop offset="0" stop-color="#939598"/><stop offset="1" stop-color="#D1D3D4"/></linearGradient><circle cx="217.266" cy="91" r="39.119" fill="url(#g)"/><linearGradient id="h" gradientUnits="userSpaceOnUse" x1="1469.251" y1="897.439" x2="1416.156" y2="897.439" gradientTransform="matrix(0 1 -1 0 1114.705 -1350.575)"><stop offset="0" stop-color="#939598"/><stop offset="1" stop-color="#D1D3D4"/></linearGradient><circle cx="217.266" cy="91" r="29.891" fill="url(#h)"/><circle cx="217.267" cy="91" r="27.484" opacity=".5" fill="#7DDCF9"/><linearGradient id="i" gradientUnits="userSpaceOnUse" x1="1412.83" y1="882.27" x2="1454.872" y2="924.313" gradientTransform="matrix(0 1 -1 0 1114.705 -1350.575)"><stop offset="0" stop-color="#fff"/><stop offset="1" stop-color="#fff" stop-opacity="0"/></linearGradient><path d="M236.811 71.683c-4.96-5.019-11.839-8.137-19.446-8.164l-27.581 27.581c.027 7.607 3.145 14.484 8.164 19.445l38.863-38.862z" opacity=".6" fill="url(#i)"/><linearGradient id="j" gradientUnits="userSpaceOnUse" x1="1428.606" y1="866.494" x2="1470.649" y2="908.536" gradientTransform="matrix(0 1 -1 0 1114.705 -1350.575)"><stop offset="0" stop-color="#fff"/><stop offset="1" stop-color="#fff" stop-opacity="0"/></linearGradient><path d="M240.712 76.657l-37.79 37.788c4.012 2.459 8.703 3.912 13.727 4.023l28.085-28.086c-.111-5.023-1.563-9.714-4.022-13.725z" opacity=".6" fill="url(#j)"/><path d="M121.823 91.261c-2.785-16.997-21.619-12.498-35.096-6.893-.141 2.137-.224 4.342-.224 6.633l.004.26h35.316z" fill="#BCBEC0"/><path d="M159.549 91.261h-43.726s-23.697-16.851-63.4-.4c0-.001 68.59-50.153 107.126.4z" fill="#BC002D"/><path d="M141.087 91.261h18.462c-38.536-50.553-107.126-.4-107.126-.4s52.498-34.88 88.664.4z" fill="#DD002A"/><linearGradient id="k" gradientUnits="userSpaceOnUse" x1="1443.441" y1="864.862" x2="1440.748" y2="862.169" gradientTransform="matrix(0 1 -1 0 1114.705 -1350.575)"><stop offset="0" stop-color="#6D6E71"/><stop offset="1" stop-color="#D1D3D4"/></linearGradient><circle cx="251.739" cy="90.968" r="2.735" fill="url(#k)"/><linearGradient id="l" gradientUnits="userSpaceOnUse" x1="1442.904" y1="864.325" x2="1440.524" y2="861.945" gradientTransform="matrix(0 1 -1 0 1114.705 -1350.575)"><stop offset="0" stop-color="#939598"/><stop offset="1" stop-color="#D1D3D4"/></linearGradient><circle cx="252.058" cy="90.651" r="2.417" fill="url(#l)"/><linearGradient id="m" gradientUnits="userSpaceOnUse" x1="1443.441" y1="933.941" x2="1440.749" y2="931.249" gradientTransform="matrix(0 1 -1 0 1114.705 -1350.575)"><stop offset="0" stop-color="#6D6E71"/><stop offset="1" stop-color="#D1D3D4"/></linearGradient><circle cx="182.661" cy="90.968" r="2.735" fill="url(#m)"/><linearGradient id="n" gradientUnits="userSpaceOnUse" x1="1442.903" y1="933.404" x2="1440.523" y2="931.024" gradientTransform="matrix(0 1 -1 0 1114.705 -1350.575)"><stop offset="0" stop-color="#939598"/><stop offset="1" stop-color="#D1D3D4"/></linearGradient><circle cx="182.979" cy="90.651" r="2.417" fill="url(#n)"/><linearGradient id="o" gradientUnits="userSpaceOnUse" x1="1443.44" y1="864.861" x2="1440.748" y2="862.169" gradientTransform="matrix(0 1 -1 0 1080.164 -1385.114)"><stop offset="0" stop-color="#6D6E71"/><stop offset="1" stop-color="#D1D3D4"/></linearGradient><circle cx="217.2" cy="56.429" r="2.735" fill="url(#o)"/><linearGradient id="p" gradientUnits="userSpaceOnUse" x1="1442.903" y1="864.324" x2="1440.523" y2="861.944" gradientTransform="matrix(0 1 -1 0 1080.164 -1385.114)"><stop offset="0" stop-color="#939598"/><stop offset="1" stop-color="#D1D3D4"/></linearGradient><path d="M217.517 58.528c-1.334 0-2.415-1.082-2.415-2.417-.001-1.335 1.081-2.417 2.415-2.417 1.337 0 2.419 1.082 2.418 2.417 0 1.335-1.081 2.417-2.418 2.417z" fill="url(#p)"/><linearGradient id="q" gradientUnits="userSpaceOnUse" x1="1443.44" y1="933.941" x2="1440.747" y2="931.248" gradientTransform="matrix(0 1 -1 0 1149.244 -1316.035)"><stop offset="0" stop-color="#6D6E71"/><stop offset="1" stop-color="#D1D3D4"/></linearGradient><circle cx="217.2" cy="125.507" r="2.735" fill="url(#q)"/><linearGradient id="r" gradientUnits="userSpaceOnUse" x1="1442.903" y1="933.404" x2="1440.523" y2="931.024" gradientTransform="matrix(0 1 -1 0 1149.244 -1316.035)"><stop offset="0" stop-color="#939598"/><stop offset="1" stop-color="#D1D3D4"/></linearGradient><circle cx="217.518" cy="125.189" r="2.418" fill="url(#r)"/><linearGradient id="s" gradientUnits="userSpaceOnUse" x1="1443.44" y1="864.862" x2="1440.747" y2="862.169" gradientTransform="matrix(0 1 -1 0 1104.588 -1374.998)"><stop offset="0" stop-color="#6D6E71"/><stop offset="1" stop-color="#D1D3D4"/></linearGradient><circle cx="241.624" cy="66.545" r="2.735" fill="url(#s)"/><linearGradient id="t" gradientUnits="userSpaceOnUse" x1="1442.903" y1="864.324" x2="1440.523" y2="861.943" gradientTransform="matrix(0 1 -1 0 1104.588 -1374.998)"><stop offset="0" stop-color="#939598"/><stop offset="1" stop-color="#D1D3D4"/></linearGradient><circle cx="241.94" cy="66.228" r="2.418" fill="url(#t)"/><linearGradient id="u" gradientUnits="userSpaceOnUse" x1="1443.44" y1="933.942" x2="1440.748" y2="931.25" gradientTransform="matrix(0 1 -1 0 1124.822 -1326.152)"><stop offset="0" stop-color="#6D6E71"/><stop offset="1" stop-color="#D1D3D4"/></linearGradient><circle cx="192.777" cy="115.391" r="2.734" fill="url(#u)"/><linearGradient id="v" gradientUnits="userSpaceOnUse" x1="1442.903" y1="933.404" x2="1440.524" y2="931.025" gradientTransform="matrix(0 1 -1 0 1124.822 -1326.152)"><stop offset="0" stop-color="#939598"/><stop offset="1" stop-color="#D1D3D4"/></linearGradient><circle cx="193.095" cy="115.073" r="2.417" fill="url(#v)"/><linearGradient id="w" gradientUnits="userSpaceOnUse" x1="1443.44" y1="864.864" x2="1440.748" y2="862.172" gradientTransform="matrix(0 1 -1 0 1104.59 -1326.152)"><stop offset="0" stop-color="#6D6E71"/><stop offset="1" stop-color="#D1D3D4"/></linearGradient><circle cx="241.623" cy="115.391" r="2.734" fill="url(#w)"/><linearGradient id="x" gradientUnits="userSpaceOnUse" x1="1442.902" y1="864.326" x2="1440.522" y2="861.946" gradientTransform="matrix(0 1 -1 0 1104.59 -1326.152)"><stop offset="0" stop-color="#939598"/><stop offset="1" stop-color="#D1D3D4"/></linearGradient><circle cx="241.94" cy="115.073" r="2.417" fill="url(#x)"/><linearGradient id="y" gradientUnits="userSpaceOnUse" x1="1443.441" y1="933.941" x2="1440.748" y2="931.248" gradientTransform="matrix(0 1 -1 0 1124.82 -1374.998)"><stop offset="0" stop-color="#6D6E71"/><stop offset="1" stop-color="#D1D3D4"/></linearGradient><circle cx="192.777" cy="66.545" r="2.735" fill="url(#y)"/><linearGradient id="z" gradientUnits="userSpaceOnUse" x1="1442.904" y1="933.403" x2="1440.524" y2="931.023" gradientTransform="matrix(0 1 -1 0 1124.82 -1374.998)"><stop offset="0" stop-color="#939598"/><stop offset="1" stop-color="#D1D3D4"/></linearGradient><circle cx="193.095" cy="66.228" r="2.418" fill="url(#z)"/><path d="M287.854 91.001c0-15.004 3.16-28.854 8.49-40.063-2.393-1.885-4.867-3.712-7.443-5.463-7.061 12.008-11.369 27.984-11.369 45.525 0 17.538 4.308 33.515 11.369 45.522 2.575-1.75 5.051-3.578 7.443-5.463-5.329-11.207-8.49-25.057-8.49-40.058z" fill="#A90220"/></svg>