<svg xmlns="http://www.w3.org/2000/svg" width="328" height="182" viewBox="0 0 328 182"><path d="M64.12 61.908s-14.758-13.97-31.286.197c0 0 15.053-2.715 15.35 6.493.195 6.1-7.026 6.145-15.152 1.574-6.298-3.542-23.417-6.494-33.06 17.12 0 0 21.057-15.94 34.24 8.657 0 0-3.32-7.723-20.434-6.748 0 0 16.104 1.828 18.072 14.618 1.968 12.79 15.74 26.76 33.058 15.938 17.317-10.822 13.775-48.602-.787-57.85z" fill="#FFCE00"/><path d="M129.42 151.043s-14.042 21.666-50.152-2.006c0 0 42.53 65.398 93.083 11.637 0 0-22.54-16.572-44.37-10.293" fill="#BC002D"/><path d="M172.35 160.674s-22.54-16.572-44.37-10.293l1.44.663s-2.06 3.174-6.626 5.766c12.24 5.638 25.74 9.938 40.117 12.642 3.11-2.487 6.26-5.395 9.44-8.778z" fill="#BCBEC0"/><path d="M129.42 30.956S115.38 9.292 79.27 32.963c0 0 42.528-65.4 93.08-11.636 0 0-22.538 16.57-44.37 10.29" fill="#DD002A"/><linearGradient id="a" gradientUnits="userSpaceOnUse" x1="1397.51" y1="1024.181" x2="1485.642" y2="1024.181" gradientTransform="rotate(90 1232.64 -117.935)"><stop offset="0" stop-color="#F1F2F2"/><stop offset="1" stop-color="#D1D3D4"/></linearGradient><path d="M70.757 134.506c2.28.365 4.618.56 7 .56 24.338 0 44.066-19.728 44.066-44.064s-19.73-44.066-44.064-44.066c-2.385 0-4.722.195-7.003.56 0 0-11.53 10.56-11.53 43.507 0 32.942 11.53 43.503 11.53 43.503z" fill="url(#a)"/><path d="M68.957 91c0 26.885 7.277 39.627 10.57 44.02 23.516-.93 42.296-20.276 42.296-44.02s-18.78-43.09-42.294-44.02C76.234 51.37 68.956 64.113 68.956 91z" fill="#BDC0C2"/><path d="M79.79 91c0 24.314 5.95 37.057 9.527 42.523 18.728-5.08 32.506-22.188 32.506-42.522 0-20.335-13.778-37.443-32.506-42.522C85.74 53.943 79.79 66.688 79.79 91z" fill="#9EA3A5"/><linearGradient id="b" gradientUnits="userSpaceOnUse" x1="1368.272" y1="907.439" x2="1514.88" y2="907.439" gradientTransform="rotate(90 1232.64 -117.935)"><stop offset="0" stop-color="#F1F2F2"/><stop offset="1" stop-color="#D1D3D4"/></linearGradient><path d="M101.29 140.143c24.644 15.074 56.364 24.162 91 24.162 63.87 0 117.886-30.855 135.737-73.304-17.852-42.448-71.868-73.304-135.737-73.304-34.635 0-66.356 9.087-91 24.162 0 0-14.786 17.142-14.786 49.143 0 32 14.785 49.143 14.785 49.143z" fill="url(#b)"/><linearGradient id="c" gradientUnits="userSpaceOnUse" x1="1478.607" y1="907.439" x2="1508.941" y2="907.439" gradientTransform="rotate(90 1232.64 -117.935)"><stop offset="0" stop-color="#F1F2F2"/><stop offset="1" stop-color="#D1D3D4"/></linearGradient><path d="M101.29 140.143c24.644 15.074 56.364 24.162 91 24.162 63.87 0 117.886-30.855 135.737-73.304-17.852-42.448-71.868-73.304-135.737-73.304-34.635 0-66.356 9.087-91 24.162 0 0-14.786 17.142-14.786 49.143 0 32 14.785 49.143 14.785 49.143z" fill="url(#c)"/><linearGradient id="d" gradientUnits="userSpaceOnUse" x1="1411.745" y1="907.439" x2="1476.065" y2="907.439" gradientTransform="rotate(90 1232.64 -117.935)"><stop offset="0" stop-color="#FFF"/><stop offset="1" stop-color="#FFF" stop-opacity="0"/></linearGradient><path d="M328.027 91c-1.5-3.57-3.28-7.05-5.276-10.443-24.583-23.22-75.778-39.188-134.958-39.188-36.072 0-69.146 5.95-95.066 15.843-3.268 8.162-6.222 19.486-6.222 33.79 0 14.3 2.954 25.625 6.222 33.787 25.92 9.893 58.994 15.844 95.066 15.844 59.18 0 110.375-15.97 134.96-39.19 1.995-3.393 3.774-6.874 5.275-10.443z" opacity=".6" fill="url(#d)"/><path d="M101.29 140.143c6.435 3.936 13.363 7.453 20.69 10.518-20.802-39.415-20.804-79.904 0-119.32-7.327 3.066-14.255 6.582-20.69 10.52 0 0-14.786 17.142-14.786 49.143 0 31.997 14.785 49.14 14.785 49.14z" fill="#CF0227"/><path d="M277.532 91c0 17.54 4.308 33.516 11.37 45.523 18.023-12.254 31.706-27.88 39.125-45.522-7.42-17.642-21.1-33.27-39.126-45.524C281.84 57.483 277.533 73.46 277.533 91z" fill="#BD0223"/><linearGradient id="e" gradientUnits="userSpaceOnUse" x1="1474.386" y1="930.249" x2="1452.086" y2="907.95" gradientTransform="rotate(90 1232.64 -117.935)"><stop offset="0" stop-color="#FFF"/><stop offset="1" stop-color="#D1D3D4"/></linearGradient><circle cx="214.257" cy="94.01" r="44.134" fill="url(#e)"/><linearGradient id="f" gradientUnits="userSpaceOnUse" x1="1479.652" y1="897.439" x2="1406.602" y2="897.439" gradientTransform="rotate(90 1232.64 -117.935)"><stop offset="0" stop-color="#939598"/><stop offset="1" stop-color="#D1D3D4"/></linearGradient><circle cx="217.266" cy="91" r="41.125" fill="url(#f)"/><linearGradient id="g" gradientUnits="userSpaceOnUse" x1="1477.796" y1="897.439" x2="1408.309" y2="897.439" gradientTransform="rotate(90 1232.64 -117.935)"><stop offset="0" stop-color="#939598"/><stop offset="1" stop-color="#D1D3D4"/></linearGradient><circle cx="217.266" cy="91" r="39.119" fill="url(#g)"/><linearGradient id="h" gradientUnits="userSpaceOnUse" x1="1469.251" y1="897.439" x2="1416.156" y2="897.439" gradientTransform="rotate(90 1232.64 -117.935)"><stop offset="0" stop-color="#939598"/><stop offset="1" stop-color="#D1D3D4"/></linearGradient><circle cx="217.266" cy="91" r="29.891" fill="url(#h)"/><circle cx="217.267" cy="91" r="27.484" opacity=".5" fill="#7DDCF9"/><linearGradient id="i" gradientUnits="userSpaceOnUse" x1="1412.83" y1="882.27" x2="1454.872" y2="924.313" gradientTransform="rotate(90 1232.64 -117.935)"><stop offset="0" stop-color="#FFF"/><stop offset="1" stop-color="#FFF" stop-opacity="0"/></linearGradient><path d="M236.81 71.683c-4.96-5.02-11.838-8.137-19.445-8.164l-27.58 27.58c.026 7.607 3.144 14.484 8.163 19.445l38.863-38.862z" opacity=".6" fill="url(#i)"/><linearGradient id="j" gradientUnits="userSpaceOnUse" x1="1428.606" y1="866.494" x2="1470.649" y2="908.536" gradientTransform="rotate(90 1232.64 -117.935)"><stop offset="0" stop-color="#FFF"/><stop offset="1" stop-color="#FFF" stop-opacity="0"/></linearGradient><path d="M240.712 76.657l-37.79 37.788c4.012 2.46 8.703 3.912 13.727 4.023l28.084-28.086c-.11-5.023-1.563-9.714-4.022-13.725z" opacity=".6" fill="url(#j)"/><path d="M121.823 91.26c-2.785-16.996-21.62-12.497-35.096-6.892-.14 2.137-.224 4.342-.224 6.633 0 .09.003.173.004.26h35.316z" fill="#BCBEC0"/><path d="M159.55 91.26h-43.727s-23.697-16.85-63.4-.4c0 0 68.59-50.152 107.126.4z" fill="#BC002D"/><path d="M141.087 91.26h18.462c-38.537-50.552-107.127-.4-107.127-.4s52.498-34.88 88.664.4z" fill="#DD002A"/><linearGradient id="k" gradientUnits="userSpaceOnUse" x1="1443.441" y1="864.862" x2="1440.748" y2="862.169" gradientTransform="rotate(90 1232.64 -117.935)"><stop offset="0" stop-color="#6D6E71"/><stop offset="1" stop-color="#D1D3D4"/></linearGradient><circle cx="251.739" cy="90.968" r="2.735" fill="url(#k)"/><linearGradient id="l" gradientUnits="userSpaceOnUse" x1="1442.904" y1="864.325" x2="1440.524" y2="861.945" gradientTransform="rotate(90 1232.64 -117.935)"><stop offset="0" stop-color="#939598"/><stop offset="1" stop-color="#D1D3D4"/></linearGradient><circle cx="252.058" cy="90.651" r="2.417" fill="url(#l)"/><linearGradient id="m" gradientUnits="userSpaceOnUse" x1="1443.441" y1="933.941" x2="1440.749" y2="931.249" gradientTransform="rotate(90 1232.64 -117.935)"><stop offset="0" stop-color="#6D6E71"/><stop offset="1" stop-color="#D1D3D4"/></linearGradient><circle cx="182.661" cy="90.968" r="2.735" fill="url(#m)"/><linearGradient id="n" gradientUnits="userSpaceOnUse" x1="1442.903" y1="933.404" x2="1440.523" y2="931.024" gradientTransform="rotate(90 1232.64 -117.935)"><stop offset="0" stop-color="#939598"/><stop offset="1" stop-color="#D1D3D4"/></linearGradient><circle cx="182.979" cy="90.651" r="2.417" fill="url(#n)"/><linearGradient id="o" gradientUnits="userSpaceOnUse" x1="1443.44" y1="864.861" x2="1440.748" y2="862.169" gradientTransform="rotate(90 1232.64 -152.475)"><stop offset="0" stop-color="#6D6E71"/><stop offset="1" stop-color="#D1D3D4"/></linearGradient><circle cx="217.2" cy="56.429" r="2.735" fill="url(#o)"/><linearGradient id="p" gradientUnits="userSpaceOnUse" x1="1442.903" y1="864.324" x2="1440.523" y2="861.944" gradientTransform="rotate(90 1232.64 -152.475)"><stop offset="0" stop-color="#939598"/><stop offset="1" stop-color="#D1D3D4"/></linearGradient><path d="M217.517 58.528c-1.334 0-2.415-1.082-2.415-2.417 0-1.334 1.08-2.416 2.415-2.416 1.337 0 2.42 1.082 2.418 2.417 0 1.336-1.08 2.418-2.418 2.418z" fill="url(#p)"/><g><linearGradient id="q" gradientUnits="userSpaceOnUse" x1="1443.44" y1="933.941" x2="1440.747" y2="931.248" gradientTransform="rotate(90 1232.64 -83.396)"><stop offset="0" stop-color="#6D6E71"/><stop offset="1" stop-color="#D1D3D4"/></linearGradient><circle cx="217.2" cy="125.507" r="2.735" fill="url(#q)"/><linearGradient id="r" gradientUnits="userSpaceOnUse" x1="1442.903" y1="933.404" x2="1440.523" y2="931.024" gradientTransform="rotate(90 1232.64 -83.396)"><stop offset="0" stop-color="#939598"/><stop offset="1" stop-color="#D1D3D4"/></linearGradient><circle cx="217.518" cy="125.189" r="2.418" fill="url(#r)"/></g><g><linearGradient id="s" gradientUnits="userSpaceOnUse" x1="1443.44" y1="864.862" x2="1440.747" y2="862.169" gradientTransform="rotate(90 1239.793 -135.205)"><stop offset="0" stop-color="#6D6E71"/><stop offset="1" stop-color="#D1D3D4"/></linearGradient><circle cx="241.624" cy="66.545" r="2.735" fill="url(#s)"/><linearGradient id="t" gradientUnits="userSpaceOnUse" x1="1442.903" y1="864.324" x2="1440.523" y2="861.943" gradientTransform="rotate(90 1239.793 -135.205)"><stop offset="0" stop-color="#939598"/><stop offset="1" stop-color="#D1D3D4"/></linearGradient><circle cx="241.94" cy="66.228" r="2.418" fill="url(#t)"/></g><g><linearGradient id="u" gradientUnits="userSpaceOnUse" x1="1443.44" y1="933.942" x2="1440.748" y2="931.25" gradientTransform="rotate(90 1225.487 -100.665)"><stop offset="0" stop-color="#6D6E71"/><stop offset="1" stop-color="#D1D3D4"/></linearGradient><circle cx="192.777" cy="115.391" r="2.734" fill="url(#u)"/><linearGradient id="v" gradientUnits="userSpaceOnUse" x1="1442.903" y1="933.404" x2="1440.524" y2="931.025" gradientTransform="rotate(90 1225.487 -100.665)"><stop offset="0" stop-color="#939598"/><stop offset="1" stop-color="#D1D3D4"/></linearGradient><circle cx="193.095" cy="115.073" r="2.417" fill="url(#v)"/></g><g><linearGradient id="w" gradientUnits="userSpaceOnUse" x1="1443.44" y1="864.864" x2="1440.748" y2="862.172" gradientTransform="rotate(90 1215.37 -110.78)"><stop offset="0" stop-color="#6D6E71"/><stop offset="1" stop-color="#D1D3D4"/></linearGradient><circle cx="241.623" cy="115.391" r="2.734" fill="url(#w)"/><linearGradient id="x" gradientUnits="userSpaceOnUse" x1="1442.902" y1="864.326" x2="1440.522" y2="861.946" gradientTransform="rotate(90 1215.37 -110.78)"><stop offset="0" stop-color="#939598"/><stop offset="1" stop-color="#D1D3D4"/></linearGradient><circle cx="241.94" cy="115.073" r="2.417" fill="url(#x)"/></g><g><linearGradient id="y" gradientUnits="userSpaceOnUse" x1="1443.441" y1="933.941" x2="1440.748" y2="931.248" gradientTransform="rotate(90 1249.91 -125.09)"><stop offset="0" stop-color="#6D6E71"/><stop offset="1" stop-color="#D1D3D4"/></linearGradient><circle cx="192.777" cy="66.545" r="2.735" fill="url(#y)"/><linearGradient id="z" gradientUnits="userSpaceOnUse" x1="1442.904" y1="933.403" x2="1440.524" y2="931.023" gradientTransform="rotate(90 1249.91 -125.09)"><stop offset="0" stop-color="#939598"/><stop offset="1" stop-color="#D1D3D4"/></linearGradient><circle cx="193.095" cy="66.228" r="2.418" fill="url(#z)"/></g><path d="M287.854 91c0-15.003 3.16-28.853 8.49-40.062-2.393-1.885-4.867-3.712-7.443-5.463C281.84 57.483 277.533 73.46 277.533 91c0 17.538 4.308 33.515 11.37 45.522 2.574-1.75 5.05-3.578 7.442-5.463-5.33-11.208-8.49-25.058-8.49-40.06z" fill="#A90220"/></svg>