<svg xmlns="http://www.w3.org/2000/svg" viewBox="0 0 49.263001 40.034001" preserveAspectRatio="xMinYMin meet"><path d="M49.263 4.739c-1.811.805-3.76 1.348-5.805 1.591 2.088-1.25 3.689-3.23 4.444-5.592-1.953 1.159-4.115 2-6.418 2.454-1.843-1.964-4.47-3.192-7.377-3.192-5.581 0-10.106 4.525-10.106 10.107 0 .791.089 1.562.262 2.303-8.4-.422-15.848-4.445-20.833-10.56-.87 1.492-1.368 3.228-1.368 5.082 0 3.506 1.784 6.6 4.496 8.412-1.656-.053-3.215-.508-4.578-1.265l-.001.128c0 4.896 3.484 8.98 8.108 9.91-.848.23-1.741.354-2.663.354-.652 0-1.285-.063-1.902-.182 1.287 4.015 5.019 6.938 9.441 7.019-3.459 2.711-7.816 4.327-12.552 4.327-.815 0-1.62-.048-2.411-.142 4.474 2.869 9.786 4.541 15.493 4.541 18.591 0 28.756-15.4 28.756-28.756 0-.438-.009-.875-.028-1.309 1.974-1.422 3.688-3.203 5.042-5.23z" fill="#fff"/></svg>