<svg xmlns="http://www.w3.org/2000/svg" viewBox="0 0 936.96 936.96" preserveAspectRatio="xMinYMin meet"><path d="M0 468.48q0 129.32 62.952 234.728 62.952 108.824 170.8 171.288 107.848 62.464 234.728 62.464 127.368 0 235.704-62.464 108.336-62.952 170.556-171.044 62.22-108.092 62.22-234.972 0-128.832-62.464-235.704-62.952-108.336-171.044-170.556-108.092-62.22-234.972-62.22-129.32 0-234.728 62.952-108.824 62.952-171.288 170.8-62.464 107.848-62.464 234.728zm78.08 0q0-78.08 30.744-150.792t83.936-125.416q53.192-53.192 125.416-83.692 72.224-30.5 150.304-30.5t150.792 30.5q72.712 30.5 125.904 83.692 52.704 52.704 83.204 125.416 30.5 72.712 30.5 150.792 0 83.936-34.404 160.064-34.404 76.128-96.624 131.516-62.22 55.388-142.252 80.276v-137.616q0-51.24-41.968-80.032 102.968-9.272 150.548-52.216t47.58-136.152q0-72.224-44.408-121.512 8.784-26.352 8.784-50.752 0-36.112-16.592-66.368-32.696 0-58.56 10.736-25.864 10.736-63.44 37.088-45.384-10.248-93.696-10.248-55.144 0-102.968 11.224-36.6-26.84-63.196-37.82-26.596-10.98-60.268-10.98-16.104 30.744-16.104 66.368 0 25.376 8.296 51.24-44.408 47.824-44.408 121.024 0 93.208 47.336 135.664 47.336 42.456 151.768 52.216-27.816 18.544-38.552 54.168-23.912 8.296-49.776 8.296-19.52 0-33.672-8.784-4.392-2.44-8.052-5.124-3.66-2.684-7.564-6.588t-6.344-6.1q-2.44-2.196-6.344-7.564-3.904-5.368-5.124-6.832-1.22-1.464-5.856-7.808-4.636-6.344-5.124-6.832-22.936-30.256-54.656-30.256-17.08 0-17.08 7.32 0 2.928 8.296 9.76 15.616 13.664 16.592 14.64 11.712 9.272 13.176 11.712 14.152 17.568 21.472 38.552 27.328 61 93.696 61 10.736 0 41.968-4.88v103.456q-80.032-24.888-142.252-80.276-62.22-55.388-96.624-131.516-34.404-76.128-34.404-160.064z" fill="#fff"/></svg>