<svg xmlns="http://www.w3.org/2000/svg" viewBox="0 0 1184 1000" preserveAspectRatio="xMinYMin meet"><path d="M0 818q0-87 89-155t215-68h54q-42-40-42-86 0-29 16-58-10 1-29 1-104 0-170-65T67 227q0-91 82-159T336 0h310l-69 50h-98q47 18 73.5 68T579 229q0 93-88 162-37 29-48 46t-11 42q0 19 27 48t54 49q61 43 84.5 88T621 777q0 90-82 156.5T317 1000q-133 0-225-50T0 818zm112-33q0 69 58.5 117.5T316 951q119 0 172.5-44T542 790q0-19-4-32-3-11-7-20.5t-12-19-14-16-19.5-16.5-20.5-15-25-17.5-26-17.5q-39-12-77-12-90-1-157.5 47T112 785zm66-559q11 79 60.5 136T348 420q59 2 94-52t25-133-59.5-134T298 44t-95 51-25 131zm555 24v-50h200V0h50v200h201v50H983v201h-50V250H733z" fill="#fff"/></svg>