<svg xmlns="http://www.w3.org/2000/svg" xmlns:xlink="http://www.w3.org/1999/xlink" width="338.924" height="297.531"><g fill="#050505"><polygon points="27.708,265.385 32.924,265.385 23.753,276.739 14.506,265.385 19.757,265.385 19.757,260.251 0,260.251 0,265.385 7.83,265.385 21.017,281.6 21.017,291.731 13.356,291.731 13.356,296.879 34.136,296.879 34.136,291.731 26.47,291.731 26.47,281.6 39.661,265.385 47.465,265.385 47.465,260.251 27.708,260.251"/><polygon points="89.07,291.629 66.316,291.629 66.316,280.211 85.363,280.211 85.363,274.979 66.316,274.979 66.316,265.508 88.72,265.508 88.72,272.849 93.848,272.849 93.848,260.251 53.702,260.251 53.702,265.385 60.866,265.385 60.866,291.731 53.702,291.731 53.702,296.879 94.225,296.879 94.225,283.765 89.07,283.765"/><path d="M143.474 278.565c0 4.534-1.362 7.875-4.171 10.21-2.83 2.354-7.191 3.547-12.959 3.547-5.785 0-10.173-1.194-13.039-3.549-2.837-2.333-4.213-5.674-4.213-10.208 0-4.483 1.38-7.811 4.218-10.17 2.866-2.38 7.251-3.585 13.034-3.585 5.771 0 10.132 1.192 12.957 3.543 2.81 2.341 4.173 5.683 4.173 10.212m-.981-14.449c-2.061-1.543-4.518-2.695-7.29-3.428-2.734-.719-5.719-1.084-8.859-1.084-2.091 0-4.131.157-6.056.475-1.939.323-3.778.823-5.472 1.487-1.721.685-3.293 1.543-4.672 2.554-1.415 1.028-2.645 2.275-3.653 3.705-1.001 1.427-1.784 3.048-2.329 4.818-.548 1.774-.826 3.765-.826 5.922 0 3.244.604 6.104 1.794 8.498 1.191 2.389 2.861 4.391 4.967 5.955 2.062 1.538 4.53 2.689 7.339 3.423 2.746.724 5.744 1.09 8.908 1.09 3.147 0 6.13-.366 8.859-1.09 2.788-.733 5.242-1.888 7.29-3.423 2.086-1.564 3.749-3.566 4.938-5.957 1.191-2.385 1.794-5.248 1.794-8.496 0-3.25-.603-6.107-1.794-8.495-1.189-2.385-2.852-4.389-4.938-5.954"/><polygon points="187.078,290.338 167.577,260.254 155.292,260.254 155.292,265.383 162.457,265.383 162.457,291.731 155.292,291.731 155.292,296.879 175.047,296.879 175.047,291.731 167.907,291.731 167.907,270.382 184.947,296.879 188.994,296.879 206.01,270.499 206.01,291.731 198.848,291.731 198.848,296.879 218.605,296.879 218.605,291.731 211.438,291.731 211.438,265.383 218.605,265.383 218.605,260.254 206.264,260.254"/><path d="M247.006 280.072l6.857-13.12 6.883 13.12h-13.74zm9.412-19.818h-16.5v5.131h8.701l-13.76 26.346h-7.047v5.151h19.76v-5.151h-6.707l3.396-6.505h19.225l3.346 6.505h-6.67v5.151h19.783v-5.151h-7.051l-16.476-31.477z"/><polygon points="319.17,260.254 319.17,265.385 326.334,265.385 326.334,288.867 298.232,260.254 285.992,260.254 285.992,265.385 293.158,265.385 293.158,291.731 285.992,291.731 285.992,296.882 305.754,296.882 305.754,291.731 298.611,291.731 298.611,268.359 326.711,296.882 331.787,296.882 331.787,265.385 338.924,265.385 338.924,260.254"/></g><path fill="#020202" d="M169.461 235.02c-54.69 0-99.186-44.88-99.186-100.045 0-55.163 44.495-100.041 99.186-100.041 54.691 0 99.188 44.878 99.188 100.041-.001 55.165-44.497 100.045-99.188 100.045zm0-195.086c-51.934 0-94.186 42.635-94.186 95.041 0 52.408 42.252 95.045 94.186 95.045 51.936 0 94.188-42.637 94.188-95.045-.001-52.406-42.253-95.041-94.188-95.041z"/><defs><path id="a" d="M223.586 54.141v-.256l5.641-28.21s-12.537-28.837-54.537-25.389c-42.002 3.448-47.33 13.165-54.226 24.762l4.074 18.493-7.836 5.015s-2.821-8.463-7.209-8.776c0 0 6.582-9.403 1.881-15.985-4.702-6.583-29.777-5.956-39.494 27.269 0 0-1.253-10.03-5.328-10.03s-19.12 5.329-15.045 21c4.074 15.672 18.18 20.374 22.881 22.254 0 0 2.193 2.821 1.254 6.582-.494 1.975-11.868 37.133-2.368 69.633 7.095 24.27 29.774 45.357 29.774 45.357 17.322 16.523 40.693 26.658 66.413 26.658 53.395 0 96.688-43.67 96.688-97.545-.001-33.635-16.883-63.297-42.563-80.832z"/></defs><clipPath id="b"><use xlink:href="#a" overflow="visible"/></clipPath><g clip-path="url(#b)"><path fill="#F4CF8C" d="M281.574 280.104s1.611 21.884-4.326 26.259c0 0-1.25 8.75-9.688 9.061 0 0-1.875 5.002-10.625 2.5-8.75-2.5-16.25-28.125-16.25-28.125s26.465-22.515 40.889-9.695z"/><path fill="#050505" d="M203.561 170.528s70.271 11.314 78.014 109.576c0 0-13.102 8.337-26.799 8.933-.001.001 1.191-75.63-51.215-118.509z"/><g fill="#DD002A"><path d="M272.746 236.849c-3.832 1.867-11.969 5.08-24.627 6.383.445 1.627.863 3.234 1.25 4.816 4.988-.754 14.07-2.602 24.814-6.932-.464-1.449-.941-2.877-1.437-4.267zM244.652 231.989c.549 1.59 1.068 3.17 1.559 4.734 4.617-.469 14.965-1.93 24.133-6.082-.639-1.537-1.301-3.027-1.977-4.486-3.371 1.553-10.844 4.313-23.715 5.834zM281.574 280.104c-.709-8.996-1.945-17.256-3.602-24.852-5.326 3.303-13.848 7.314-25.383 8.855 2.342 14.863 2.186 24.929 2.186 24.929 13.698-.594 26.799-8.932 26.799-8.932z"/></g><circle fill="#F4CF8C" cx="131.07" cy="96.11" r="15.072"/><circle fill="#F4CF8C" cx="131.07" cy="96.11" r="15.072"/><path fill="#F4CF8C" d="M115.998 96.11c0 .463.023.92.065 1.373 1.074-.456 2.218-1.05 3.438-1.831 7.143-4.563 7.354-10.004 5.759-13.452-5.44 2.274-9.262 7.645-9.262 13.91z"/><circle fill="#F4CF8C" cx="123.283" cy="96.11" r="7.285"/><path fill="#D8AF6F" d="M123.283 88.825c-.296 0-.585.022-.871.057 2.84.431 5.042 3.5 5.042 7.228 0 3.729-2.202 6.797-5.042 7.229.286.034.575.057.871.057 4.023 0 7.285-3.262 7.285-7.286 0-4.023-3.261-7.285-7.285-7.285z"/><path fill="#F4CF8C" d="M122.412 88.882c-.226-.035-.453-.057-.686-.057-3.164 0-5.729 3.262-5.729 7.285.001-3.728 2.803-6.797 6.415-7.228z"/><path fill="#F4CF8C" d="M115.998 96.11c0 4.024 2.564 7.286 5.729 7.286.232 0 .46-.023.686-.057-3.613-.431-6.415-3.5-6.415-7.229z"/><circle fill="#F4CF8C" cx="219.277" cy="96.11" r="15.072"/><circle fill="#F4CF8C" cx="219.277" cy="96.11" r="15.072"/><circle fill="#F4CF8C" cx="227.063" cy="96.11" r="7.286"/><path fill="#D8AF6F" d="M222.893 96.11c0-3.728 2.203-6.797 5.041-7.228-.285-.035-.574-.057-.871-.057-4.023 0-7.285 3.262-7.285 7.285 0 4.024 3.262 7.286 7.285 7.286.297 0 .586-.023.871-.057-2.838-.431-5.041-3.5-5.041-7.229z"/><path fill="#F4CF8C" d="M234.35 96.11c0-4.023-2.566-7.285-5.729-7.285-.232 0-.461.022-.688.057 3.614.431 6.417 3.5 6.417 7.228z"/><path fill="#F4CF8C" d="M227.934 103.339c.227.034.455.057.688.057 3.162 0 5.729-3.262 5.729-7.286-.001 3.729-2.804 6.798-6.417 7.229z"/><g fill="#F4CF8C"><path d="M88.966 105.74s14.375 1.875 12.5-12.5c0 0 5 7.812 16.249.625 11.251-7.187 5.312-16.562 2.188-16.874-3.125-.313-7.5-3.751-18.438 7.5l-6.25-14.375 7.188-9.375s.987 13.542 11.431 9.74c10.444-3.802 2.632-26.927-6.743-26.927l-16.875 9.686s3.125-8.749 16.875-15.937c0 0 5.312-3.125 2.187-10.938-3.124-7.812-32.812-2.188-37.499 35.937 0 0-5.312-5-4.062-12.812s-15.312-5.625-12.188 11.25c3.125 16.875 19.376 20.312 19.376 20.312s5.517 8.926 1.562 19.062c-.001.001 6.249 7.814 12.499 5.626zM117.715 93.865c11.251-7.187 5.312-16.562 2.188-16.874-1.921-.192-4.318-1.561-8.419.024l3.684 7.585s-.757 10.849-12.867 8.073c0 0-.127.427-.443 1.077 1.371 1.609 6.41 6.152 15.857.115zM101.57 94.298c-1.872 3.36-8.364 9.813-23.969 1.769-.297 1.406-.578 2.656-1.136 4.049 0 0 6.25 7.813 12.5 5.625.001-.001 13.647 1.773 12.605-11.443zM102.403 60.741s.987 13.542 11.431 9.74c4.271-1.555 5.488-6.341 4.795-11.456-2.606 2.697-10.653 9.542-13.805-4.954l-14.382 16.652-11.354 6.56 14.129-3.532 8.248 10.74-6.25-14.375 7.188-9.375zM92.568 49.178c2.327-3.201 6.707-7.79 14.522-11.875 0 0 5.312-3.125 2.187-10.938-.053-.134-.116-.263-.186-.389-.741 2.364-2.188 5.18-5.024 7.152-5.804 4.038-26.492 18.417-19.933 40.116.001.002-2.654-13.424 8.434-24.066zM71.482 61.997c-1.098-1.191-4.837-5.816-3.767-12.506.494-3.086-1.795-4.604-4.549-4.28-.49 8.401.667 25.425 17.184 30.305.001 0-6.255-2.973-8.868-13.519z"/></g><path fill="#050505" d="M76.466 100.115l12.5 5.625s-11.251 61.874 47.5 64.374c0 0 .413 39.797-35.836 39.174 0 0-47.91-38.057-24.164-109.173z"/><path fill="#DD002A" d="M91.44 139.399c-.191-.566-.372-1.135-.543-1.703l-.011-.033c-2.776 1.439-10.246 4.67-20.958 4.564.049 1.381.13 2.736.231 4.076 5.381.016 14.255-.711 21.998-4.887l-.016-.043c-.223-.584-.431-1.17-.631-1.758l-.07-.216z"/><path fill="#DD002A" d="M95.401 148.265c-.296-.514-.579-1.031-.853-1.553l-.004-.006c-3.2 1.516-12.116 5.143-23.809 5.152.205 1.537.444 3.045.713 4.523 6.359.006 15.767-1.123 24.961-6.447l-.026-.043c-.322-.506-.63-1.018-.929-1.533l-.053-.093z"/><path fill="#DD002A" d="M76.466 100.115c-3.394 9.297-4.824 17.829-5.949 25.829 5.943 1.146 11.942 1.254 17.81-2.539-.747-10.02.64-17.665.64-17.665l-12.501-5.625z"/><path fill="#050505" d="M94.633 258.868l76.568 98.746s2.994 1.07 4.277-.428v-98.318h-80.845z"/><path fill="#050505" d="M255.715 258.868l-76.57 98.746s-2.992 1.07-4.277-.428v-98.318h80.847z"/><path fill="#050505" d="M210.42 168.544h-70.494c-75.035 32.951-57.566 157.218-57.566 157.218h93.299v-56.826l5.162 56.826h87.168c-.001 0 17.468-124.267-57.569-157.218z"/><path fill="#F4CF8C" d="M240.686 289.799s7.5 25.625 16.25 28.125c8.75 2.502 10.625-2.5 10.625-2.5 2.465-.09 4.311-.902 5.697-2.004.596-8.994 1-22.18-.041-37.093-14.422-1.933-32.531 13.472-32.531 13.472z"/><path fill="#930023" d="M273.646 284.2c-1.055-26.695-6.416-61.053-24.4-86.768-21.543-23.008-45.686-26.904-45.686-26.904 52.406 42.879 51.215 118.509 51.215 118.509 7.006-.304 13.85-2.634 18.871-4.837z"/><path fill="#DD002A" d="M85.395 245.972c-.243 1.143-.476 2.287-.697 3.428 20.736-7.637 53.545-12.57 90.477-12.57s69.738 4.934 90.475 12.57c-.221-1.141-.453-2.285-.695-3.428-20.771-7.494-53.26-12.318-89.779-12.318-36.523-.001-69.012 4.824-89.781 12.318z"/><path fill="#DD002A" d="M89.502 230.278c-.324 1.027-.637 2.059-.939 3.088 20.826-6.865 51.896-11.225 86.611-11.225s65.785 4.359 86.609 11.225c-.301-1.029-.615-2.061-.938-3.088-20.818-6.689-51.479-10.918-85.672-10.918-34.194 0-64.855 4.229-85.671 10.918z"/><path fill="#DD002A" d="M118.669 182.185c-16.069 20.713-14.336 45.91-14.336 45.91l4.368-1.984c-1.374-21.98 8.659-39.393 14.97-48.037-1.733 1.314-3.4 2.685-5.002 4.111z"/><path fill="#DD002A" d="M226.676 178.073c6.311 8.645 16.344 26.057 14.971 48.037l4.367 1.984s1.734-25.197-14.336-45.908c-1.6-1.427-3.268-2.798-5.002-4.113z"/><path fill="#DD002A" d="M175.658 268.937l5.162 56.826h87.168s5.363-38.156-2.621-77.789l-4.459-1.449c7.301 19.955 3.895 73.972 3.895 73.972h-79.326l-7.471-83.851h-6.083l-.804 83.851h-84.678c-3.893-37.958 2.19-73.728 2.19-73.728l-3.607.984c-8.049 39.71-2.665 78.009-2.665 78.009h93.299v-56.825z"/><path fill="#F4CF8C" d="M214.162 165.954s-14.984 13.652-39.625 13.652c-29.303 0-38.352-13.652-38.352-13.652l-5.188-95.474h88.35l-5.185 95.474z"/><path fill="#F4CF8C" d="M214.162 165.954s-14.984 13.652-39.625 13.652c-29.303 0-38.352-13.652-38.352-13.652l-5.188-95.474h88.35l-5.185 95.474z"/><path fill="#F4CF8C" d="M214.162 165.954s-14.984 13.652-39.625 13.652c-29.303 0-38.352-13.652-38.352-13.652l-5.188-95.474h88.35l-5.185 95.474z"/><path fill="#B27D30" d="M186.391 86.757l2.182-2.778s7.941-.397 20.15 6.153c0 0-8.836-10.918-22.137-7.246l.4-2.382-3.773 6.154s1.389 8.238-.098 14.193h-15.883c-1.489-5.956-.099-14.193-.099-14.193l-3.771-6.154.396 2.382c-13.3-3.672-22.134 7.246-22.134 7.246 12.209-6.55 20.149-6.153 20.149-6.153l2.183 2.778c-4.268 8.536-14.292 9.231-14.292 9.231 10.521 1.092 14.393-5.458 14.393-5.458-.596 5.161.495 11.957.495 11.957l10.57 7.448.051-.05.051.05 10.57-7.448s1.09-6.795.494-11.957c0 0 3.871 6.551 14.393 5.458.001 0-10.025-.695-14.29-9.231z"/><ellipse fill="#050505" cx="175.173" cy="117.675" rx="14.491" ry="8.685"/><path fill="#DD002A" d="M175.174 126.796c3.279 0 6.303-1.088 8.73-2.189-1.701-1.84-4.973-3.088-8.73-3.088-3.76 0-7.031 1.248-8.732 3.088 2.428 1.101 5.453 2.189 8.732 2.189z"/><path fill="#fff" d="M175.174 108.991c-8.004 0-14.491 3.889-14.491 8.685 0 .251.021.499.056.745h28.869c.035-.247.057-.494.057-.745-.001-4.797-6.489-8.685-14.491-8.685z"/><path fill="#C98C28" d="M175.174 132.017c-2.941 0-5.676-.525-7.961-1.428 1.831 2.373 4.711 3.91 7.961 3.91 3.248 0 6.129-1.537 7.959-3.91-2.283.902-5.018 1.428-7.959 1.428z"/><path fill="#C98C28" d="M175.174 157.851c-5.024 0-9.696-.9-13.599-2.443 3.13 4.055 8.048 6.678 13.599 6.678s10.469-2.623 13.598-6.678c-3.905 1.542-8.575 2.443-13.598 2.443z"/><polygon fill="#CEA063" points="131.851,86.159 218.496,86.159 219.348,70.48 130.998,70.48"/><path fill="#050505" d="M219.543 70.48l7.752-44.809s-11.691-22.943-51.865-22.943c-48.833 0-52.376 22.943-52.376 22.943l7.751 44.809h88.738z"/><polygon fill="#DD002A" points="127.48,51.264 130.805,70.48 219.543,70.48 222.867,51.264"/><polygon fill="#050505" points="232.939,81.199 117.407,81.199 113.834,70.48 236.512,70.48"/><circle fill="#050505" cx="175.173" cy="57.406" r="14.286"/><path fill="#DD002A" d="M175.174 69.944c-6.916 0-12.541-5.624-12.541-12.534 0-6.916 5.625-12.541 12.541-12.541 6.914 0 12.539 5.625 12.539 12.541 0 6.91-5.625 12.534-12.539 12.534zm0-23.437c-6.012 0-10.901 4.891-10.901 10.902 0 6.007 4.89 10.895 10.901 10.895 6.01 0 10.902-4.888 10.902-10.895 0-6.011-4.892-10.902-10.902-10.902z"/><path fill="#DD002A" d="M175.174 66.457c-4.992 0-9.053-4.059-9.053-9.049 0-4.991 4.061-9.052 9.053-9.052 4.99 0 9.053 4.061 9.053 9.052 0 4.989-4.063 9.049-9.053 9.049zm0-16.918c-4.34 0-7.871 3.53-7.871 7.868 0 4.337 3.531 7.866 7.871 7.866 4.338 0 7.869-3.529 7.869-7.866 0-4.338-3.531-7.868-7.869-7.868z"/><polygon fill="#DD002A" points="177.438,54.232 181.557,51.259 178.432,55.263 183.346,53.979 178.986,56.584 184.031,57.161 179.025,58.017 183.521,60.377 178.545,59.365 181.883,63.191 177.609,60.449 179.342,65.223 176.344,61.123 176.236,66.2 174.922,61.293 172.988,65.99 173.535,60.939 170.033,64.618 172.368,60.109 167.773,62.275 171.582,58.912 166.516,59.272 171.279,57.513 166.427,56.018 171.504,56.097 167.519,52.95 172.225,54.86 169.645,50.485 173.344,53.966 172.518,48.954 174.709,53.536 175.75,48.565 176.139,53.628 178.906,49.37"/><path fill="#050505" d="M177.879 57.407c0 1.49-1.213 2.703-2.707 2.703-1.49 0-2.703-1.213-2.703-2.703 0-1.496 1.213-2.706 2.703-2.706 1.494.001 2.707 1.21 2.707 2.706z"/><path fill="#DD002A" d="M174.537 179.606c-29.288 0-38.342-13.639-38.351-13.652l1.053 19.381s8.804 13.283 37.315 13.283c23.973 0 38.553-13.283 38.553-13.283l1.053-19.381c-.015.016-14.996 13.652-39.623 13.652z"/><path fill="#050505" d="M175.172 198.368c.715-2.52 1.145-5.764 1.145-9.305s-.43-6.785-1.145-9.305c-.713 2.52-1.143 5.764-1.143 9.305s.43 6.786 1.143 9.305z"/><circle fill="#930023" cx="182.109" cy="189.659" r="2.68"/><circle fill="#fff" cx="181.514" cy="189.063" r="2.68"/><path fill="#FFB000" d="M184.656 215.753h-18.967c-3.009 0-5.457 2.449-5.457 5.459v13.494c0 3.01 2.448 5.459 5.457 5.459h18.967c3.01 0 5.457-2.449 5.457-5.459v-13.494c0-3.01-2.447-5.459-5.457-5.459zm-1.476 7.574v9.264c0 .553-.449 1.002-1 1.002h-14.012c-.552 0-1-.449-1-1.002v-9.264c0-.553.448-1.002 1-1.002h14.012c.55 0 1 .449 1 1.002z"/><polygon fill="#C98C28" points="164.638,102.546 175.123,109.934 175.174,109.884 175.225,109.934 185.709,102.546"/><g fill="#4F1907"><path d="M175.172 108.296s-8.833-10.521-29.577-5.36l-31.364 30.867s11.315 8.438 28.982 6.154c17.667-2.28 32.06-21.14 31.959-31.661zM175.174 108.296s8.834-10.521 29.578-5.36c20.742 5.161 31.363 30.867 31.363 30.867s-11.314 8.438-28.982 6.154c-17.666-2.28-32.059-21.14-31.959-31.661z"/></g><polygon fill="#DD002A" points="218.164,198.519 219.996,198.519 216.775,202.511 213.525,198.519 215.371,198.519 215.371,196.716 208.43,196.716 208.43,198.519 211.18,198.519 215.812,204.218 215.812,207.778 213.121,207.778 213.121,209.587 220.424,209.587 220.424,207.778 217.73,207.778 217.73,204.218 222.363,198.519 225.105,198.519 225.105,196.716 218.164,196.716"/></g></svg>