<?xml version="1.0" encoding="utf-8"?>
<!-- Generator: Adobe Illustrator 15.0.0, SVG Export Plug-In . SVG Version: 6.00 Build 0)  -->
<!DOCTYPE svg PUBLIC "-//W3C//DTD SVG 1.1//EN" "http://www.w3.org/Graphics/SVG/1.1/DTD/svg11.dtd">
<svg version="1.1" id="Camada_1" xmlns="http://www.w3.org/2000/svg" xmlns:xlink="http://www.w3.org/1999/xlink" x="0px" y="0px"
	 width="16px" height="16px" viewBox="0 0 16 16" enable-background="new 0 0 16 16" xml:space="preserve">
<g>
	<path fill="#050505" d="M13.787,11.72l1.011-5.845c0,0-1.524-2.992-6.764-2.992c-6.369,0-6.832,2.992-6.832,2.992l1.011,5.845
		H13.787z"/>
	<polygon fill="#DD002A" points="1.78,9.213 2.213,11.72 13.787,11.72 14.22,9.213 	"/>
	<polygon fill="#050505" points="15.534,13.117 0.466,13.117 0,11.72 16,11.72 	"/>
	<g>
		<circle fill="#050505" cx="8" cy="10.015" r="1.863"/>
		<path fill="#DD002A" d="M8,11.649c-0.902,0-1.636-0.733-1.636-1.635c0-0.902,0.734-1.636,1.636-1.636
			c0.901,0,1.636,0.733,1.636,1.636C9.636,10.916,8.901,11.649,8,11.649z M8,8.593c-0.784,0-1.422,0.639-1.422,1.422
			c0,0.784,0.638,1.421,1.422,1.421s1.422-0.637,1.422-1.421C9.422,9.231,8.784,8.593,8,8.593z"/>
		<path fill="#DD002A" d="M8,11.195c-0.651,0-1.181-0.53-1.181-1.181c0-0.651,0.53-1.181,1.181-1.181
			c0.651,0,1.181,0.529,1.181,1.181C9.181,10.665,8.651,11.195,8,11.195z M8,8.988c-0.566,0-1.026,0.46-1.026,1.026
			c0,0.565,0.46,1.025,1.026,1.025s1.026-0.46,1.026-1.025C9.026,9.448,8.566,8.988,8,8.988z"/>
		<polygon fill="#DD002A" points="8.295,9.601 8.833,9.213 8.425,9.735 9.066,9.567 8.497,9.907 9.155,9.982 8.502,10.094 
			9.089,10.402 8.44,10.27 8.875,10.77 8.318,10.411 8.543,11.034 8.153,10.499 8.139,11.161 7.967,10.521 7.715,11.134 
			7.786,10.476 7.33,10.955 7.634,10.367 7.035,10.649 7.532,10.211 6.871,10.258 7.492,10.028 6.859,9.834 7.521,9.844 
			7.001,9.434 7.615,9.683 7.279,9.111 7.761,9.565 7.654,8.912 7.939,9.51 8.075,8.861 8.126,9.521 8.487,8.966 		"/>
		<circle fill="#050505" cx="8" cy="10.015" r="0.353"/>
	</g>
</g>
</svg>
