<?xml version="1.0" encoding="utf-8"?>
<!-- Generator: Adobe Illustrator 15.0.0, SVG Export Plug-In . SVG Version: 6.00 Build 0)  -->
<!DOCTYPE svg PUBLIC "-//W3C//DTD SVG 1.1//EN" "http://www.w3.org/Graphics/SVG/1.1/DTD/svg11.dtd">
<svg version="1.1" id="Camada_1" xmlns="http://www.w3.org/2000/svg" xmlns:xlink="http://www.w3.org/1999/xlink" x="0px" y="0px"
	 width="328px" height="182px" viewBox="0 0 328 182" style="enable-background:new 0 0 328 182;" xml:space="preserve">
<g>
	<path style="fill:#FFCE00;" d="M64.121,61.908c0,0-14.759-13.971-31.287,0.197c0,0,15.053-2.715,15.349,6.493
		c0.196,6.1-7.025,6.145-15.151,1.574C26.734,66.63,9.615,63.678-0.027,87.291c0,0,21.056-15.938,34.239,8.658
		c0,0-3.321-7.722-20.434-6.747c0,0,16.104,1.828,18.072,14.618c1.968,12.789,15.741,26.761,33.058,15.938
		C82.225,108.936,78.683,71.156,64.121,61.908z"/>
	<path style="fill:#BC002D;" d="M129.42,151.043c0,0-14.042,21.666-50.152-2.006c0,0,42.529,65.398,93.083,11.637
		c0,0-22.54-16.572-44.37-10.293"/>
	<path style="fill:#BCBEC0;" d="M172.351,160.674c0,0-22.54-16.572-44.37-10.293l1.439,0.662c0,0-2.061,3.174-6.626,5.766
		c12.24,5.639,25.739,9.939,40.117,12.643C166.021,166.965,169.17,164.057,172.351,160.674z"/>
	<path style="fill:#DD002A;" d="M129.421,30.956c0,0-14.043-21.664-50.152,2.007c0,0,42.529-65.399,93.082-11.636
		c0,0-22.539,16.57-44.37,10.291"/>
	
		<linearGradient id="SVGID_1_" gradientUnits="userSpaceOnUse" x1="1397.5098" y1="1024.1807" x2="1485.6416" y2="1024.1807" gradientTransform="matrix(0 1 -1 0 1114.7051 -1350.5752)">
		<stop  offset="0" style="stop-color:#F1F2F2"/>
		<stop  offset="1" style="stop-color:#D1D3D4"/>
	</linearGradient>
	<path style="fill:url(#SVGID_1_);" d="M70.757,134.506c2.281,0.365,4.618,0.561,7.001,0.561c24.337,0,44.065-19.729,44.065-44.065
		s-19.729-44.066-44.064-44.066c-2.384,0-4.721,0.195-7.002,0.56c0,0-11.531,10.561-11.531,43.507
		C59.226,123.945,70.757,134.506,70.757,134.506z"/>
	<path style="fill:#BDC0C2;" d="M68.957,91c0,26.885,7.277,39.627,10.571,44.021c23.515-0.932,42.295-20.277,42.295-44.021
		S103.044,47.91,79.529,46.979C76.235,51.372,68.957,64.114,68.957,91z"/>
	<path style="fill:#9EA3A5;" d="M79.79,91c0,24.314,5.951,37.057,9.527,42.523c18.728-5.08,32.506-22.188,32.506-42.522
		c0-20.336-13.778-37.444-32.506-42.523C85.741,53.943,79.79,66.687,79.79,91z"/>
	
		<linearGradient id="SVGID_2_" gradientUnits="userSpaceOnUse" x1="1368.2715" y1="907.4395" x2="1514.8799" y2="907.4395" gradientTransform="matrix(0 1 -1 0 1114.7051 -1350.5752)">
		<stop  offset="0" style="stop-color:#F1F2F2"/>
		<stop  offset="1" style="stop-color:#D1D3D4"/>
	</linearGradient>
	<path style="fill:url(#SVGID_2_);" d="M101.289,140.143c24.645,15.074,56.365,24.162,91,24.162
		c63.87,0,117.887-30.855,135.738-73.304c-17.852-42.449-71.868-73.305-135.737-73.305c-34.635,0-66.356,9.087-91,24.162
		c0,0-14.786,17.142-14.786,49.143C86.504,123,101.289,140.143,101.289,140.143z"/>
	
		<linearGradient id="SVGID_3_" gradientUnits="userSpaceOnUse" x1="1478.6074" y1="907.4395" x2="1508.9414" y2="907.4395" gradientTransform="matrix(0 1 -1 0 1114.7051 -1350.5752)">
		<stop  offset="0" style="stop-color:#F1F2F2"/>
		<stop  offset="1" style="stop-color:#D1D3D4"/>
	</linearGradient>
	<path style="fill:url(#SVGID_3_);" d="M101.289,140.143c24.645,15.074,56.365,24.162,91,24.162
		c63.87,0,117.887-30.855,135.738-73.304c-17.852-42.449-71.868-73.305-135.737-73.305c-34.635,0-66.356,9.087-91,24.162
		c0,0-14.786,17.142-14.786,49.143C86.504,123,101.289,140.143,101.289,140.143z"/>
	
		<linearGradient id="SVGID_4_" gradientUnits="userSpaceOnUse" x1="1411.7451" y1="907.4395" x2="1476.0652" y2="907.4395" gradientTransform="matrix(0 1 -1 0 1114.7051 -1350.5752)">
		<stop  offset="0" style="stop-color:#FFFFFF"/>
		<stop  offset="1" style="stop-color:#FFFFFF;stop-opacity:0"/>
	</linearGradient>
	<path style="opacity:0.6;fill:url(#SVGID_4_);" d="M328.027,91.001c-1.501-3.57-3.28-7.05-5.276-10.444
		c-24.584-23.22-75.779-39.188-134.959-39.188c-36.072,0-69.146,5.951-95.066,15.844c-3.268,8.162-6.222,19.486-6.222,33.789
		c0,14.302,2.954,25.626,6.222,33.788c25.921,9.893,58.994,15.844,95.066,15.844c59.18,0,110.375-15.969,134.959-39.189
		C324.747,98.051,326.526,94.57,328.027,91.001z"/>
	<path style="fill:#CF0227;" d="M101.289,140.143c6.436,3.936,13.364,7.453,20.691,10.518c-20.802-39.416-20.804-79.905,0-119.32
		c-7.327,3.065-14.255,6.581-20.69,10.519c0,0-14.786,17.142-14.786,49.143C86.504,123,101.289,140.143,101.289,140.143z"/>
	<path style="fill:#BD0223;" d="M277.532,91.001c0,17.538,4.308,33.515,11.369,45.522c18.024-12.254,31.707-27.881,39.126-45.522
		c-7.419-17.643-21.101-33.271-39.126-45.525C281.841,57.483,277.532,73.46,277.532,91.001z"/>
	
		<linearGradient id="SVGID_5_" gradientUnits="userSpaceOnUse" x1="1474.3857" y1="930.249" x2="1452.0864" y2="907.9496" gradientTransform="matrix(0 1 -1 0 1114.7051 -1350.5752)">
		<stop  offset="0" style="stop-color:#FFFFFF"/>
		<stop  offset="1" style="stop-color:#D1D3D4"/>
	</linearGradient>
	<circle style="fill:url(#SVGID_5_);" cx="214.257" cy="94.01" r="44.134"/>
	
		<linearGradient id="SVGID_6_" gradientUnits="userSpaceOnUse" x1="1479.6523" y1="897.4395" x2="1406.6021" y2="897.4395" gradientTransform="matrix(0 1 -1 0 1114.7051 -1350.5752)">
		<stop  offset="0" style="stop-color:#939598"/>
		<stop  offset="1" style="stop-color:#D1D3D4"/>
	</linearGradient>
	<circle style="fill:url(#SVGID_6_);" cx="217.266" cy="91" r="41.125"/>
	
		<linearGradient id="SVGID_7_" gradientUnits="userSpaceOnUse" x1="1477.7959" y1="897.4395" x2="1408.3086" y2="897.4395" gradientTransform="matrix(0 1 -1 0 1114.7051 -1350.5752)">
		<stop  offset="0" style="stop-color:#939598"/>
		<stop  offset="1" style="stop-color:#D1D3D4"/>
	</linearGradient>
	<circle style="fill:url(#SVGID_7_);" cx="217.266" cy="91" r="39.119"/>
	
		<linearGradient id="SVGID_8_" gradientUnits="userSpaceOnUse" x1="1469.251" y1="897.4395" x2="1416.1556" y2="897.4395" gradientTransform="matrix(0 1 -1 0 1114.7051 -1350.5752)">
		<stop  offset="0" style="stop-color:#939598"/>
		<stop  offset="1" style="stop-color:#D1D3D4"/>
	</linearGradient>
	<circle style="fill:url(#SVGID_8_);" cx="217.266" cy="91" r="29.891"/>
	<circle style="opacity:0.5;fill:#7DDCF9;" cx="217.267" cy="91" r="27.484"/>
	
		<linearGradient id="SVGID_9_" gradientUnits="userSpaceOnUse" x1="1412.8301" y1="882.2705" x2="1454.8723" y2="924.3128" gradientTransform="matrix(0 1 -1 0 1114.7051 -1350.5752)">
		<stop  offset="0" style="stop-color:#FFFFFF"/>
		<stop  offset="1" style="stop-color:#FFFFFF;stop-opacity:0"/>
	</linearGradient>
	<path style="opacity:0.6;fill:url(#SVGID_9_);" d="M236.811,71.683c-4.96-5.019-11.839-8.137-19.446-8.164L189.784,91.1
		c0.027,7.607,3.145,14.484,8.164,19.445L236.811,71.683z"/>
	
		<linearGradient id="SVGID_10_" gradientUnits="userSpaceOnUse" x1="1428.6064" y1="866.4941" x2="1470.6487" y2="908.5364" gradientTransform="matrix(0 1 -1 0 1114.7051 -1350.5752)">
		<stop  offset="0" style="stop-color:#FFFFFF"/>
		<stop  offset="1" style="stop-color:#FFFFFF;stop-opacity:0"/>
	</linearGradient>
	<path style="opacity:0.6;fill:url(#SVGID_10_);" d="M240.712,76.657l-37.79,37.788c4.012,2.459,8.703,3.912,13.727,4.023
		l28.085-28.086C244.623,85.359,243.171,80.668,240.712,76.657z"/>
	<path style="fill:#BCBEC0;" d="M121.823,91.261c-2.785-16.997-21.619-12.498-35.096-6.893c-0.141,2.137-0.224,4.342-0.224,6.633
		c0,0.088,0.003,0.172,0.004,0.26H121.823z"/>
	<path style="fill:#BC002D;" d="M159.549,91.261h-43.726c0,0-23.697-16.851-63.4-0.4C52.423,90.86,121.013,40.708,159.549,91.261z"
		/>
	<path style="fill:#DD002A;" d="M141.087,91.261h18.462c-38.536-50.553-107.126-0.4-107.126-0.4S104.921,55.981,141.087,91.261z"/>
	<g>
		
			<linearGradient id="SVGID_11_" gradientUnits="userSpaceOnUse" x1="1443.4414" y1="864.8623" x2="1440.7482" y2="862.1691" gradientTransform="matrix(0 1 -1 0 1114.7051 -1350.5752)">
			<stop  offset="0" style="stop-color:#6D6E71"/>
			<stop  offset="1" style="stop-color:#D1D3D4"/>
		</linearGradient>
		<circle style="fill:url(#SVGID_11_);" cx="251.739" cy="90.968" r="2.735"/>
		
			<linearGradient id="SVGID_12_" gradientUnits="userSpaceOnUse" x1="1442.9043" y1="864.3252" x2="1440.524" y2="861.945" gradientTransform="matrix(0 1 -1 0 1114.7051 -1350.5752)">
			<stop  offset="0" style="stop-color:#939598"/>
			<stop  offset="1" style="stop-color:#D1D3D4"/>
		</linearGradient>
		<circle style="fill:url(#SVGID_12_);" cx="252.058" cy="90.651" r="2.417"/>
	</g>
	<g>
		
			<linearGradient id="SVGID_13_" gradientUnits="userSpaceOnUse" x1="1443.4414" y1="933.9414" x2="1440.7487" y2="931.2487" gradientTransform="matrix(0 1 -1 0 1114.7051 -1350.5752)">
			<stop  offset="0" style="stop-color:#6D6E71"/>
			<stop  offset="1" style="stop-color:#D1D3D4"/>
		</linearGradient>
		<circle style="fill:url(#SVGID_13_);" cx="182.661" cy="90.968" r="2.735"/>
		
			<linearGradient id="SVGID_14_" gradientUnits="userSpaceOnUse" x1="1442.9033" y1="933.4043" x2="1440.5231" y2="931.0241" gradientTransform="matrix(0 1 -1 0 1114.7051 -1350.5752)">
			<stop  offset="0" style="stop-color:#939598"/>
			<stop  offset="1" style="stop-color:#D1D3D4"/>
		</linearGradient>
		<circle style="fill:url(#SVGID_14_);" cx="182.979" cy="90.651" r="2.417"/>
	</g>
	<g>
		
			<linearGradient id="SVGID_15_" gradientUnits="userSpaceOnUse" x1="1443.4404" y1="864.8613" x2="1440.7477" y2="862.1686" gradientTransform="matrix(0 1 -1 0 1080.1641 -1385.1143)">
			<stop  offset="0" style="stop-color:#6D6E71"/>
			<stop  offset="1" style="stop-color:#D1D3D4"/>
		</linearGradient>
		<circle style="fill:url(#SVGID_15_);" cx="217.2" cy="56.429" r="2.735"/>
		
			<linearGradient id="SVGID_16_" gradientUnits="userSpaceOnUse" x1="1442.9033" y1="864.3242" x2="1440.5231" y2="861.944" gradientTransform="matrix(0 1 -1 0 1080.1641 -1385.1143)">
			<stop  offset="0" style="stop-color:#939598"/>
			<stop  offset="1" style="stop-color:#D1D3D4"/>
		</linearGradient>
		<path style="fill:url(#SVGID_16_);" d="M217.517,58.528c-1.334,0-2.415-1.082-2.415-2.417c-0.001-1.335,1.081-2.417,2.415-2.417
			c1.337,0,2.419,1.082,2.418,2.417C219.935,57.446,218.854,58.528,217.517,58.528z"/>
	</g>
	<g>
		
			<linearGradient id="SVGID_17_" gradientUnits="userSpaceOnUse" x1="1443.4404" y1="933.9414" x2="1440.7472" y2="931.2482" gradientTransform="matrix(0 1 -1 0 1149.2441 -1316.0352)">
			<stop  offset="0" style="stop-color:#6D6E71"/>
			<stop  offset="1" style="stop-color:#D1D3D4"/>
		</linearGradient>
		<circle style="fill:url(#SVGID_17_);" cx="217.2" cy="125.507" r="2.735"/>
		
			<linearGradient id="SVGID_18_" gradientUnits="userSpaceOnUse" x1="1442.9033" y1="933.4043" x2="1440.5226" y2="931.0236" gradientTransform="matrix(0 1 -1 0 1149.2441 -1316.0352)">
			<stop  offset="0" style="stop-color:#939598"/>
			<stop  offset="1" style="stop-color:#D1D3D4"/>
		</linearGradient>
		<circle style="fill:url(#SVGID_18_);" cx="217.518" cy="125.189" r="2.418"/>
	</g>
	<g>
		
			<linearGradient id="SVGID_19_" gradientUnits="userSpaceOnUse" x1="1443.4404" y1="864.8623" x2="1440.7472" y2="862.1691" gradientTransform="matrix(0 1 -1 0 1104.5879 -1374.998)">
			<stop  offset="0" style="stop-color:#6D6E71"/>
			<stop  offset="1" style="stop-color:#D1D3D4"/>
		</linearGradient>
		<circle style="fill:url(#SVGID_19_);" cx="241.624" cy="66.545" r="2.735"/>
		
			<linearGradient id="SVGID_20_" gradientUnits="userSpaceOnUse" x1="1442.9033" y1="864.3242" x2="1440.5226" y2="861.9435" gradientTransform="matrix(0 1 -1 0 1104.5879 -1374.998)">
			<stop  offset="0" style="stop-color:#939598"/>
			<stop  offset="1" style="stop-color:#D1D3D4"/>
		</linearGradient>
		<circle style="fill:url(#SVGID_20_);" cx="241.94" cy="66.228" r="2.418"/>
	</g>
	<g>
		
			<linearGradient id="SVGID_21_" gradientUnits="userSpaceOnUse" x1="1443.4404" y1="933.9424" x2="1440.7477" y2="931.2496" gradientTransform="matrix(0 1 -1 0 1124.8223 -1326.1523)">
			<stop  offset="0" style="stop-color:#6D6E71"/>
			<stop  offset="1" style="stop-color:#D1D3D4"/>
		</linearGradient>
		<circle style="fill:url(#SVGID_21_);" cx="192.777" cy="115.391" r="2.734"/>
		
			<linearGradient id="SVGID_22_" gradientUnits="userSpaceOnUse" x1="1442.9033" y1="933.4043" x2="1440.5236" y2="931.0246" gradientTransform="matrix(0 1 -1 0 1124.8223 -1326.1523)">
			<stop  offset="0" style="stop-color:#939598"/>
			<stop  offset="1" style="stop-color:#D1D3D4"/>
		</linearGradient>
		<circle style="fill:url(#SVGID_22_);" cx="193.095" cy="115.073" r="2.417"/>
	</g>
	<g>
		
			<linearGradient id="SVGID_23_" gradientUnits="userSpaceOnUse" x1="1443.4404" y1="864.8643" x2="1440.7477" y2="862.1715" gradientTransform="matrix(0 1 -1 0 1104.5898 -1326.1523)">
			<stop  offset="0" style="stop-color:#6D6E71"/>
			<stop  offset="1" style="stop-color:#D1D3D4"/>
		</linearGradient>
		<circle style="fill:url(#SVGID_23_);" cx="241.623" cy="115.391" r="2.734"/>
		
			<linearGradient id="SVGID_24_" gradientUnits="userSpaceOnUse" x1="1442.9023" y1="864.3262" x2="1440.5221" y2="861.946" gradientTransform="matrix(0 1 -1 0 1104.5898 -1326.1523)">
			<stop  offset="0" style="stop-color:#939598"/>
			<stop  offset="1" style="stop-color:#D1D3D4"/>
		</linearGradient>
		<circle style="fill:url(#SVGID_24_);" cx="241.94" cy="115.073" r="2.417"/>
	</g>
	<g>
		
			<linearGradient id="SVGID_25_" gradientUnits="userSpaceOnUse" x1="1443.4414" y1="933.9414" x2="1440.7482" y2="931.2482" gradientTransform="matrix(0 1 -1 0 1124.8203 -1374.998)">
			<stop  offset="0" style="stop-color:#6D6E71"/>
			<stop  offset="1" style="stop-color:#D1D3D4"/>
		</linearGradient>
		<circle style="fill:url(#SVGID_25_);" cx="192.777" cy="66.545" r="2.735"/>
		
			<linearGradient id="SVGID_26_" gradientUnits="userSpaceOnUse" x1="1442.9043" y1="933.4033" x2="1440.5236" y2="931.0226" gradientTransform="matrix(0 1 -1 0 1124.8203 -1374.998)">
			<stop  offset="0" style="stop-color:#939598"/>
			<stop  offset="1" style="stop-color:#D1D3D4"/>
		</linearGradient>
		<circle style="fill:url(#SVGID_26_);" cx="193.095" cy="66.228" r="2.418"/>
	</g>
	<path style="fill:#A90220;" d="M287.854,91.001c0-15.004,3.16-28.854,8.49-40.063c-2.393-1.885-4.867-3.712-7.443-5.463
		c-7.061,12.008-11.369,27.984-11.369,45.525c0,17.538,4.308,33.515,11.369,45.522c2.575-1.75,5.051-3.578,7.443-5.463
		C291.015,119.852,287.854,106.002,287.854,91.001z"/>
</g>
</svg>
