<svg xmlns="http://www.w3.org/2000/svg" viewBox="0 0 49.263001 40.034001" preserveAspectRatio="xMinYMin meet"><path d="M49.263 4.74c-1.81.804-3.76 1.347-5.805 1.59 2.088-1.25 3.69-3.23 4.444-5.592-1.953 1.16-4.115 2-6.418 2.454C39.64 1.228 37.014 0 34.107 0 28.527 0 24 4.525 24 10.107c0 .79.09 1.562.263 2.303-8.4-.422-15.848-4.445-20.833-10.56-.87 1.492-1.368 3.228-1.368 5.082 0 3.506 1.784 6.6 4.496 8.412-1.656-.053-3.215-.508-4.578-1.265v.127c0 4.896 3.483 8.98 8.107 9.91-.848.23-1.74.354-2.663.354-.652 0-1.285-.062-1.902-.18 1.287 4.014 5.02 6.937 9.44 7.018-3.458 2.71-7.815 4.327-12.55 4.327-.816 0-1.62-.048-2.412-.142 4.474 2.87 9.786 4.54 15.493 4.54 18.59 0 28.756-15.4 28.756-28.755 0-.438-.01-.875-.03-1.31 1.975-1.42 3.69-3.202 5.043-5.23z" fill="#fff"/></svg>