<svg xmlns="http://www.w3.org/2000/svg" viewBox="0 0 49.263001 40.034001" preserveAspectRatio="xMinYMin meet"><path d="M49.263 4.74a20.11 20.11 0 0 1-5.805 1.59A10.125 10.125 0 0 0 47.902.738c-1.953 1.16-4.115 2-6.418 2.454A10.093 10.093 0 0 0 34.107 0C28.527 0 24 4.525 24 10.107c0 .79.09 1.562.263 2.303-8.4-.422-15.848-4.445-20.833-10.56a10.055 10.055 0 0 0-1.368 5.082 10.1 10.1 0 0 0 4.496 8.412A10.078 10.078 0 0 1 1.98 14.08v.127c0 4.896 3.483 8.98 8.107 9.91a10.162 10.162 0 0 1-4.565.172c1.287 4.014 5.02 6.937 9.44 7.018a20.276 20.276 0 0 1-12.55 4.327c-.816 0-1.62-.048-2.412-.142a28.6 28.6 0 0 0 15.493 4.54c18.59 0 28.756-15.4 28.756-28.755 0-.438-.01-.875-.03-1.31a20.47 20.47 0 0 0 5.043-5.23z" fill="#fff"/></svg>