<svg xmlns="http://www.w3.org/2000/svg" width="512" height="512"><path fill="#00ACEE" d="M434.625 63.496c-67.822 0-118.399 71.68-95.018 123.167 95.989.001 56.911-88.605 95.018-123.167z"/><path fill="#FFCC2F" d="M456.534 256.992c0-22.79-108.627-34.129-169.139-37.663-60.511-3.533-281.592 38.389-255.42 93.813 26.173 55.426 92.581 114.358 167.313 114.358 38.716 0 83.584-27.284 86.053-77.38 44.78-14.957 171.193-15.749 171.193-93.128z"/><path fill="#2BAF2B" d="M400.981 272.143c7.02 7.104-15.222 26.295-34.606 17.262 8.731 19.688-29.676 36.064-48.336 22.026 1.998 15.865-36.122 24.996-48.285 7.292 3.136 8.441 5.757 14.898 8.229 20.209l-.046-.149c6.324 8.279 14.929 14.939 52.394 14.939 57.727 0 150.97-43.849 150.97-76.039 0-26.643-9.992-29.14-27.196-27.198-17.208 1.942-107.17 11.291-126.306 7.534 10.383 2.21 62.741 12.24 73.182 14.124z"/><path fill="#EF5734" d="M198.51 48.82c-110.382 0-221.179 109.721-168.451 261.056 35.817 21.53 83.576 12.995 94.278 1.532 16.178 5.171 30.612 7.347 43.513 7.347 67.047 0 124.34-71.235 124.34-160.257-.001-91.302-60.26-109.678-93.68-109.678z"/><path fill="#FFCC2F" d="M153.308 146.522c0 24.632 19.969 44.603 44.603 44.603 24.633 0 44.603-19.971 44.603-44.603 0-24.633-19.97-44.603-44.603-44.603-24.634.001-44.603 19.971-44.603 44.603z"/><path fill="#543729" d="M171.207 146.522c0 14.747 11.956 26.704 26.704 26.704 14.748 0 26.703-11.957 26.703-26.704 0-14.748-11.955-26.704-26.703-26.704-14.748.001-26.704 11.956-26.704 26.704z"/><ellipse fill="#fff" cx="197.91" cy="134.674" rx="15.56" ry="9.675"/><path fill="#CECECE" d="M289.401 123.675c-20.275 11.807-19.604 50.03-10.595 68.681 17.445-6.466 41.752-19.291 45.527-21.585 3.773-2.293-2.088-10.989 12.559-10.989 20.315 0 38.684 6.348 43.956 8.634-3.337-6.869-45.09-44.741-91.447-44.741z"/><path fill="#543729" d="M502.214 250.797c-26.335-25.305-158.017-41.1-199.568-45.698 2.014-4.754 3.726-9.669 5.142-14.731 5.665-2.481 11.776-4.789 18.101-6.716.77 2.272 4.397 10.98 6.465 15.112 83.553 2.305 87.844-62.09 91.24-79.732 3.323-17.25 3.154-33.917 31.812-64.388-42.697-12.443-104.096 19.284-124.664 66.506-7.728-2.896-15.474-5.035-23.136-6.357-5.488-22.146-34.077-83.845-109.097-83.845-48.585 0-97.581 20.063-134.421 55.045-19.852 18.85-35.445 41.234-46.344 66.53-11.774 27.328-17.744 57.417-17.744 89.434 0 111.505 76.126 209.223 119.139 209.223 18.784 0 34.943-14.067 38.736-26.675 3.181 8.645 12.938 35.522 16.142 42.364 4.737 10.117 26.642 18.872 36.229 8.373 12.326 6.849 34.943 10.973 47.27-7.289 23.739 5.022 44.728-9.135 45.184-26.026 11.649-.622 17.363-16.978 14.819-30.001-1.875-9.591-21.904-44-29.719-55.877 15.468 12.58 54.644 16.142 59.401.008 24.936 19.571 63.797 9.301 66.879-6.619 30.301 7.874 65.054-9.417 59.348-30.359 48.674-3.368 42.444-55.158 28.786-68.282zm-126.758-85.839c-12.821-5.033-29.084-8.217-40.482-8.217-16.164 0-26.009 9.16-41.218 9.16-3.193 0-10.812.016-16.926-2.162 4.021 4.217 9.025 6.505 18.725 6.505 5.793 0 17.263-2.958 26.553-5.752.129 1.956.334 3.898.61 5.826-17.402 4.161-35.664 15.231-40.949 18.105-11.755-25.958-1.65-50.505 7.697-61.837 41.865.1 75.678 28.847 85.99 38.372zm18.101-1.957l-6.406-5.979c-6.575-6.159-13.43-11.731-20.469-16.678 10.483-20.801 23.658-43.514 40.298-57.565-18.314 7.381-36.397 29.445-47.089 53.03-5.448-3.464-10.98-6.554-16.561-9.255 14.913-31.834 49.568-58.42 87.762-60.497-25.583 23.2-15.978 69.506-37.535 96.944zm-52.551 21.699c-2.821-6.114-5.677-16.27-5.328-22.239 4.753-.112 13.868 1.67 15.335 2.016-.557 2.803-.855 8.944-.866 9.739.903-1.556 3.41-6.922 4.43-9.029 9.127 1.744 21.126 4.659 28.161 7.938-8.26 5.348-22.299 11.168-41.732 11.575zm-57.035-71.789c-33.381 33.832-20.199 76.63-8.046 95.976-17.29 28.761-51.28 48.437-90.765 57.389 44.328 0 70.397-11.409 85.563-22.586 9.677-7.131 14.928-14.17 17.608-18.088 65.72 4.251 169.783 25.423 179.935 32.281 4.074 2.753 8.278 8.842 8.895 14.668-49.387-6.914-138.407-14.188-161.719-15.424 16.549 2.347 137.241 25.202 158.163 30.552-6.368 10.384-20.872 17.715-42.733 12.621 11.812 16.093-11.125 35.399-43.071 24.766 7.032 15.799-21.413 30.021-53.741 13.555.411 15.805-40.105 17.626-56.123.162.306 2.082 2.207 6.066 3.028 7.809-5.162 46.15-42.961 74.783-81.677 74.783-94.794 0-177.375-76.989-177.375-179.417 0-108.292 80.03-189.096 176.597-189.096 55.332-.001 80.326 43.55 85.461 60.049z"/></svg>