<svg xmlns="http://www.w3.org/2000/svg" width="360" height="424"><g><path fill="#FBA919" d="M67.892 81.419s5.737 22.127 6.555 29.504c.821 7.375-14.751 23.765-14.751 31.961 0 8.196 3.274 22.947 21.306 30.324 18.032 7.376 20.488 26.224 20.488 37.7 0 11.473-6.555 33.598-6.555 33.598s-4.096 54.908 18.029 64.742l22.125 9.833c4.916 0 40.977 14.755 62.283 9.018 21.308-5.737 27.041-12.292 27.041-12.292s21.31 1.637 27.865-17.214c6.559-18.847 10.654-58.183 8.195-76.214-2.459-18.032-5.736-41.794 9.014-49.991 14.755-8.196 30.324-18.027 27.865-26.224-2.459-8.196-15.568-19.67-15.568-19.67s-3.279-20.486-.822-25.404c2.457-4.917 17.21-17.213 9.014-26.226-8.191-9.014-22.947-9.014-22.947-9.014l-18.847 1.637s-31.961-28.682-73.757-27.043c-41.794 1.639-68.021 27.043-68.021 27.043s-13.93-4.917-26.224 0c-12.294 4.919-14.745-.001-12.288 13.932z"/><path fill="#E78724" d="M142.775 203.437s-16.229 24.815-28.133 42.425c-1.842 2.724 11.904 2.913 11.904 2.913l16.229-45.338z"/><path fill="#E78724" d="M150.502 151.989s-4.892 12.205-7.572 18.675c-2.909 7.034-14 10.533-14 10.533s5.749-6.03 5.749-21.306c0-6.409 8.274-8.957 8.274-8.957l7.549 1.055z"/><path fill="#E78724" d="M145.56 158.89s-10.023 11.931-28.633 5.249c-18.614-6.68-20.522-30.545-20.522-37.227 0-6.682 35.317 6.682 40.091 9.546s13.836 14.317 9.064 22.432z"/><path fill="#E78724" d="M75.261 31.399s17.18-3.343 28.633 5.726c11.458 9.067 14.794 16.228 14.794 16.228l-19.305 15.303s-9.328-4.325-12.192-16.735c-2.863-12.409-.954-18.135-11.93-20.522z"/><path fill="#E78724" d="M140.549 124.427c-7.397-10.5-19.587-15.08-29.32-15.839-16.596-1.298-24.475 4.569-24.475 4.569s27.18 1.151 35.014 11.44c14.584 19.15 35.86 20.706 39.262 16.5-3.934.196-8.262-1.753-12.894-6.133-2.894-2.74-5.24-7.204-7.587-10.537z"/><path fill="#E78724" d="M94.666 161.554s-30.157-10.367-24.425-20.865c5.726-10.501 1.168-16.222 1.168-16.222s-16.839 12.57-12.548 25.932c2.637 8.202 7.061 14.14 31.354 25.525 11.652 21.643 2.406 60.6 2.96 60.783.923.307 16.36-7.63 15.306-44.077-.321-11.192-1.216-26.471-13.815-31.076z"/><path fill="#E78724" d="M134.184 50.074c-12.645 6.424-29.968 15.37-29.968 15.37l6.818 3.411c-.651 1.054-.965 1.683-.965 1.683l6.998 3.182s17.083 12.375 27.55 20.331c-3.49-10.746-13.734-27.628-13.734-27.628s-2.903-7.757 3.301-16.349z"/><path fill="#E78724" d="M176.191 311.934c-38.866 0-52.031-19.731-52.031-19.731l6.074 14.791c2.296 6.399 26.788 26.311 45.898 26.311"/><path fill="#E78724" d="M128.419 278.871s3.576 21.854 17.894 21.854c12.167 0 15.752-18.46 15.752-22.275l-33.646.421z"/><path fill="#E78724" d="M104.592 245.912c1.272-3.502 5.726-17.66 7.157-30.545 1.715-15.432 1.09-38.003 1.09-38.003s-3.82 14.795-7.161 17.186c-3.339 2.385-9.545 18.61-9.545 18.61s-3.324 24.156-4.906 32.275c4.378.877 8.064-1.703 13.365.477z"/><path fill="#E78724" d="M70.016 150.162s8.111-2.866 10.5-20.522c2.385-17.66-2.866-32.932-2.866-32.932s.477 24.34-2.385 29.114c-2.866 4.771-5.249 6.203-8.592 12.409-3.343 6.207 1.431 10.021 3.343 11.931z"/><path fill="#87CCEE" d="M113.063 69.061"/><path fill="#FDC168" d="M79.701 35.576l-1.656-1.049c-4.883.165 1.656 1.049 1.656 1.049z"/><path fill="#FBA919" d="M140.786 44.846s-7.634-1.272-11.454-6.998c-3.82-5.728-14.636-17.184-31.879-17.312-17.242-.129-34.301 4.583-34.301 4.583l14.891 9.409c1.575-.051 4.329-.03 8.883.122 18.688.621 21.565 19.106 21.565 19.106l65.862-9.069"/><path fill="#fff" d="M147.151 146.942s-8.91 8.91-22.593 6.044c-13.683-2.862-21.957-8.908-22.593-19.409-.636-10.5 2.866-14.636 2.866-14.636s15.271 4.776 22.593 11.14c7.318 6.362 12.726 16.544 19.727 16.861z"/><path fill="#C9C9C9" d="M136.368 143.759s-7.727 3.53-16.364.655c-11.306-3.771-12.059-15.529-12.059-15.529s-6.936 20.354 12.51 24.272c15.597 3.142 24.821-5.896 24.821-5.896l-8.908-3.502z"/><path fill="#463014" d="M145.249 257.84"/><path fill="#463014" d="M141.859 40.528c-.831-17.456 13.479-31.359 18.437-31.951.274 2.958-.276 14.496 4.681 18.044 1.443-9.424 6.323-19.814 25.593-26.621-4.127 10.946-.551 20.115 1.152 24.365 13.159-11.944 22.025-9.97 22.025-9.97s-9.143 15.777-5.567 26.129c-26.416-2.071-66.192 2.807-66.321.004z"/><path fill="#463014" d="M85.857 67.117c-6.303-5.229-1.605-10.082-2.103-16.023-.271-3.161-.521-6.144-1.563-7.789-5.8-9.159-19.483-11.938-19.62-11.967l-6.422-1.258 4.251-4.973c.551-.644 18.009-17.301 45.025-8.579 18.898 6.095 32.888 26.763 33.409 27.598l-9.476 4.456c-.111-.176-11.171-19.603-27.384-24.831-13.106-4.229-25.185-.206-30.359 2.431 5.5 2.196 12.691 6.195 17.024 13.036 2.044 3.231 2.389 7.299 2.722 11.238.439 5.215.85 10.138 4.688 13.326l-10.192 3.335z"/><path fill="#463014" d="M69.023 143.45s7.941-9.847 10.293-29.008c.924-7.547-.717-22.433-3.343-28.16.477 14.079-3.102 28.16-3.102 28.16s-2.413 26.144-3.848 29.008z"/><path fill="#463014" d="M110.896 57.172c-.004-.021-2.548-11.138-9.601-16.75-9.949-7.914-22.097-3.704-22.214-3.667l-1.764-5.449c.588-.191 14.473-4.566 27.269 4.429 12.873 9.046 14.418 17.246 14.552 18.152l-8.242 3.285z"/><path fill="#463014" d="M93.964 136.388s-4.166-5.964-3.417-12.523c.373-3.239 1.874-6.564 4.554-7.744 4.98-2.188 7.187 3.457 7.187 3.457s-7.009 1.73-8.324 16.81z"/><path fill="#463014" d="M145.249 257.84"/><path fill="#463014" d="M139.707 145.478l.263.507s-12.994 9.752-26.311-.144c-7.128-5.302-6.455-18.417-4.271-23.979 5.679 1.287 10.496 3.607 14.522 6.316-5.088-4.541-9.542-7.884-9.53-7.961l-5.783-1.637-11.24-3.854c-.144.857-4.244 20.074 7.59 33.168 5.245 5.806 29.835 18.808 41.51-3.424l-6.75 1.008z"/><path fill="#463014" d="M138.49 146.907c7.316 11.135 25.775 4.772 25.457-7 0 0-12.334 6.807-23.231-5.726-6.362-7.317-26.748-27.492-54.394-20.787 19.092 4.198 44.367 21.641 52.168 33.513z"/><path fill="#463014" d="M145.249 257.84"/><path fill="#463014" d="M83.739 178.333c1.76 1.017 7.967 7.445 7.971 17.059 0 4.821-.48 29.04-2.866 43.836 3.589 2.332 6.089 2.828 9.663 5.205 1.789-17.136 3.072-41.972 2.474-51.998-.684-11.429-6.803-19.099-12.478-22.37-1.777-1.022-3.634-2.027-5.504-3.038-9.72-5.252-19.771-10.685-19.771-19.962 0-7.257 2.821-9.527 5.808-11.933l.322-.261c1.982-1.601 4.225-3.417 5.554-6.399 3.626-8.153 4.219-28.921 0-34.193-2.103-2.627-7.738-11.461-6.118-17.397.617-2.266 2.044-3.945 4.367-5.135 2.458-1.259 5.779-1.897 9.867-1.897 8.03 0 16.936 2.444 21.531 3.899 16.419 5.204 36.231 20.208 41.91 24.683l.276.21 3.634 2.527-2.273-3.803c-.14-.237-14.534-23.905-40.271-32.583-5.007-1.688-14.844-4.521-24.511-4.521-5.756 0-10.64 1.005-14.507 2.985-4.713 2.411-7.905 6.258-9.231 11.121-3.25 11.921 7.335 25.194 7.696 25.618 1.234 2.203 1.757 18.206-1.094 24.611-.392.884-1.467 1.753-2.828 2.851-.426.345-.903.703-1.408 1.086-4.022 3.036-10.104 7.623-10.104 18.196 0 14.467 14.662 22.311 26.445 28.618 1.933 1.04 3.778 2.024 5.446 2.985z"/><path fill="#463014" d="M85.857 67.117c-6.303-5.229-1.605-10.082-2.103-16.023-.271-3.161-.521-6.144-1.563-7.789-5.8-9.159-19.483-11.938-19.62-11.967l-6.422-1.258 4.251-4.973c.551-.644 18.009-17.301 45.025-8.579 18.898 6.095 32.888 26.763 33.409 27.598l-9.476 4.456c-.111-.176-11.171-19.603-27.384-24.831-13.106-4.229-25.185-.206-30.359 2.431 5.5 2.196 12.691 6.195 17.024 13.036 2.044 3.231 2.389 7.299 2.722 11.238.439 5.215.85 10.138 4.688 13.326l-10.192 3.335z"/><path fill="#463014" d="M85.652 68.188l-.407-.337c-4.674-3.879-3.845-7.7-3.042-11.397.365-1.706.75-3.47.594-5.279-.255-3.042-.5-5.912-1.416-7.361-5.523-8.72-18.87-11.514-19.002-11.541l-8.021-1.573 5.317-6.216c.097-.116 11.306-11.431 30.29-11.431 5.175 0 10.477.861 15.752 2.565 19.724 6.36 33.795 27.789 33.928 28.001l.569.91-11.209 5.272-.45-.714c-1.206-2.056-11.834-19.583-26.869-24.433-3.693-1.192-7.583-1.794-11.56-1.794-7.203 0-13.044 1.963-16.152 3.281 5.194 2.339 11.493 6.276 15.479 12.562 2.167 3.424 2.518 7.609 2.862 11.652.422 5.028.821 9.756 4.348 12.684l1.331 1.104-12.342 4.045z"/><path fill="#463014" d="M110.896 57.172c-.004-.021-2.548-11.138-9.601-16.75-9.949-7.914-22.097-3.704-22.214-3.667l-1.764-5.449c.588-.191 14.473-4.566 27.269 4.429 12.873 9.046 14.418 17.246 14.552 18.152l-8.242 3.285z"/><path fill="#463014" d="M110.212 58.472l-.248-1.094c-.026-.107-2.521-10.844-9.266-16.207-3.844-3.061-8.48-4.615-13.771-4.615-4.13 0-7.199.986-7.534 1.102l-.912.303-2.366-7.269.907-.293c.407-.129 4.092-1.278 9.305-1.278 6.877 0 13.379 2.018 18.811 5.832 13.195 9.273 14.806 17.848 14.944 18.794l.116.748-9.986 3.977zm-23.284-23.822c5.652 0 10.829 1.738 14.961 5.024 5.989 4.77 8.806 13.191 9.658 16.21l6.492-2.587c-.588-2.292-3.176-9.171-14-16.78-5.179-3.64-11.136-5.484-17.711-5.484-3.608 0-6.411.574-7.796.924l1.171 3.619c1.358-.365 3.971-.926 7.225-.926z"/><path fill="#463014" d="M145.715 295.482c-2.82 0-5.698-1.023-7.693-2.75-1.527-1.316-6.691-6.059-8.968-11.87-.85-2.173-.659-3.911.574-5.162.85-.857 2.614-1.882 6.195-1.882l2.548-.004c3.036-.003 8.148-.003 12.517-.003h4.189c2.724 0 4.677.589 5.8 1.737 1.442 1.482.98 3.367.577 4.359-.702 1.738-3.607 7.394-8.525 12.652-1.761 1.884-4.324 2.923-7.214 2.923z"/><path fill="#463014" d="M148.671 147.562l-10.182-.655s2.603 4.588 4.289 10.522c1.904 6.712-1.741 16.521-1.741 16.521s13.576-15.37 7.634-26.388z"/><path fill="#463014" d="M135.961 322.367c-36.239-2.785-48.989-37.028-48.989-44.16l9.464.004-4.732-.004h4.732c.047 3.083 9.678 32.375 40.25 34.726l-.725 9.434z"/><path fill="#fff" d="M125.777 261.016c-.566-3.273-.625-6.377.066-9.427-2.754-2.07-7.696-2.839-11.404-4.041-3.032-1.919-18.548 1.967-29.805-11.656-14.104-17.059-11.136-27.244-11.136-27.244-3.616 4.018-7.121 2.487-12.633 21.221-5.52 18.738 2.591 31.801 17.708 44.915 7.142 6.195 17.238 8.747 25.922 9.724-2.909-2.921 4.969-3.213 10.399-5.245-.433-4.384.292-8.64 3.561-12.067 1.971-2.066 4.507-3.301 7.138-4.285l.411-.98c-.087-.298-.172-.599-.227-.915z"/><path fill="#C9C9C9" d="M114.821 279.149c-.314-.92-.551-1.858-.784-2.802-.251-1.031-1.501-3.952.04-.617-.396-.854-.655-1.734-.846-2.621-24.482-.031-45.781-16.84-41.666-52.179-3.205-4.255-7.693 8.58-7.693 8.58s-12.256 35.588 19.398 49.381c10.547 4.6 19.868 7.897 22.067 6.566 4.581.931 8.716-2.263 10.267-4.363-.291-.645-.556-1.291-.783-1.945z"/><path fill="#463014" d="M125.336 255.892c.038-2.983.647-5.872 2.089-8.751l.326-.581c-9.421-.081-20.271-.983-29.51-4.681-10.155-4.062-22.858-17.959-25.041-34.287 0 0-19.125 14.758-13.505 46.346 5.275 29.662 30.096 39.332 58.404 40.968.015-.192-3.184-6.8-2.173-10.845-16.074 1.168-34.049-5.042-42.726-19.32-7.944-13.068-5.716-35.379-2.451-38.648 7.964 25.129 36.62 30.237 54.587 29.799z"/><path fill="#463014" d="M176.191 294.839"/><path fill="#463014" d="M128.302 237.902c-5.094 14.949-15.499 27.047-15.499 27.047s14.313-.651 15.103-3.184c.585-1.867 12.924-30.752 17.66-64.589-4.455 7.319-16.828 39.446-17.264 40.726z"/><path fill="#E78724" d="M209.393 203.437s16.225 24.815 28.133 42.425c1.842 2.724-11.908 2.913-11.908 2.913l-16.225-45.338z"/><path fill="#E78724" d="M201.664 151.989s4.893 12.205 7.569 18.675c2.909 7.034 13.999 10.533 13.999 10.533s-5.748-6.03-5.748-21.306c0-6.409-8.273-8.957-8.273-8.957l-7.547 1.055z"/><path fill="#E78724" d="M206.605 158.89s10.023 11.931 28.638 5.249 20.522-30.545 20.522-37.227c0-6.682-35.317 6.682-40.091 9.546-4.774 2.864-13.84 14.317-9.069 22.432z"/><path fill="#E78724" d="M276.906 31.399s-17.18-3.343-28.637 5.726c-11.453 9.067-14.795 16.228-14.795 16.228l19.306 15.302s9.332-4.325 12.196-16.735c2.862-12.408.954-18.134 11.93-20.521z"/><path fill="#E78724" d="M211.618 124.427c7.397-10.5 19.583-15.08 29.32-15.839 16.597-1.298 24.472 4.569 24.472 4.569s-27.18 1.151-35.015 11.44c-14.585 19.15-35.854 20.706-39.256 16.5 3.933.196 8.263-1.753 12.892-6.133 2.893-2.74 5.24-7.204 7.587-10.537z"/><path fill="#E78724" d="M257.501 161.554s30.153-10.367 24.426-20.865c-5.726-10.501-1.172-16.222-1.172-16.222s16.843 12.57 12.548 25.932c-2.637 8.202-7.061 14.14-31.354 25.525-11.652 21.643-2.406 60.6-2.957 60.783-.924.307-16.359-7.63-15.305-44.077.32-11.192 1.215-26.471 13.814-31.076z"/><path fill="#E78724" d="M217.984 50.074c12.641 6.424 29.967 15.37 29.967 15.37l-6.817 3.411c.651 1.054.966 1.683.966 1.683l-6.998 3.182s-17.084 12.375-27.551 20.331c3.486-10.746 13.73-27.628 13.73-27.628s2.908-7.757-3.297-16.349z"/><path fill="#E78724" d="M175.978 311.934c38.86 0 52.025-19.731 52.025-19.731l-6.07 14.791c-2.296 6.399-26.79 26.311-45.896 26.311"/><path fill="#E78724" d="M223.748 278.871s-3.58 21.854-17.894 21.854c-12.165 0-15.751-18.46-15.751-22.275l33.645.421z"/><path fill="#E78724" d="M247.575 245.912c-1.272-3.502-5.726-17.66-7.161-30.545-1.715-15.432-1.086-38.003-1.086-38.003s3.819 14.795 7.156 17.186c3.344 2.385 9.546 18.61 9.546 18.61s3.324 24.156 4.906 32.275c-4.377.877-8.059-1.703-13.361.477z"/><path fill="#E78724" d="M282.154 150.162s-8.115-2.866-10.5-20.522c-2.385-17.66 2.865-32.932 2.865-32.932s-.48 24.34 2.385 29.114c2.866 4.773 5.25 6.203 8.592 12.409 3.338 6.206-1.434 10.021-3.342 11.931z"/><path fill="#87CCEE" d="M239.106 69.061"/><path fill="#FDC168" d="M272.465 35.576l1.659-1.049c4.884.165-1.659 1.049-1.659 1.049z"/><path fill="#FBA919" d="M211.378 44.846s7.638-1.272 11.454-6.998c3.819-5.728 14.639-17.184 31.883-17.312 17.242-.129 34.301 4.583 34.301 4.583l-14.892 9.409c-1.575-.051-4.329-.03-8.887.122-18.685.621-21.562 19.106-21.562 19.106l-65.86-9.069"/><path fill="#fff" d="M205.016 146.942s8.91 8.91 22.59 6.044c13.684-2.862 21.957-8.908 22.594-19.409.635-10.5-2.863-14.636-2.863-14.636s-15.275 4.776-22.593 11.14-12.726 16.544-19.728 16.861z"/><path fill="#C9C9C9" d="M215.796 143.759s7.73 3.53 16.364.655c11.309-3.771 12.062-15.529 12.062-15.529s6.932 20.354-12.514 24.272c-15.594 3.142-24.82-5.896-24.82-5.896l8.908-3.502z"/><path fill="#463014" d="M206.916 257.84"/><path fill="#463014" d="M266.309 67.117c6.303-5.229 1.609-10.082 2.107-16.023.266-3.161.516-6.144 1.559-7.789 5.801-9.159 19.483-11.938 19.624-11.967l6.423-1.258-4.252-4.973c-.551-.644-18.009-17.301-45.029-8.579-18.895 6.095-32.885 26.763-33.405 27.598l9.472 4.456c.115-.176 11.176-19.603 27.389-24.831 13.105-4.229 25.184-.206 30.355 2.431-5.497 2.196-12.691 6.195-17.024 13.036-2.044 3.231-2.386 7.299-2.718 11.238-.439 5.215-.854 10.138-4.693 13.326l10.192 3.335z"/><path fill="#463014" d="M283.14 143.45s-7.937-9.847-10.289-29.008c-.924-7.547.714-22.433 3.339-28.16-.477 14.079 3.105 28.16 3.105 28.16s2.414 26.144 3.845 29.008z"/><path fill="#463014" d="M241.271 57.172c.004-.021 2.548-11.138 9.602-16.75 9.948-7.914 22.097-3.704 22.21-3.667l1.769-5.449c-.59-.191-14.473-4.566-27.273 4.429-12.873 9.046-14.414 17.246-14.552 18.152l8.244 3.285z"/><path fill="#463014" d="M258.203 136.388s4.166-5.964 3.413-12.523c-.369-3.239-1.87-6.564-4.55-7.744-4.98-2.188-7.188 3.457-7.188 3.457s7.01 1.73 8.325 16.81z"/><path fill="#463014" d="M206.916 257.84"/><path fill="#463014" d="M212.461 145.478l-.264.507s12.99 9.752 26.307-.144c7.133-5.302 6.459-18.417 4.271-23.979-5.676 1.287-10.492 3.607-14.52 6.316 5.089-4.541 9.543-7.884 9.527-7.961l5.787-1.637 11.239-3.852c.144.857 4.243 20.074-7.595 33.168-5.244 5.806-29.834 18.808-41.506-3.424l6.754 1.006z"/><path fill="#463014" d="M213.674 146.907c-7.316 11.135-25.77 4.772-25.451-7 0 0 12.33 6.807 23.227-5.726 6.362-7.317 26.752-27.492 54.397-20.787-19.091 4.198-44.368 21.641-52.173 33.513z"/><path fill="#463014" d="M206.916 257.84"/><path fill="#463014" d="M268.431 178.333c-1.761 1.017-7.971 7.445-7.971 17.059-.004 4.821.477 29.04 2.866 43.836-3.59 2.332-6.09 2.828-9.664 5.205-1.789-17.136-3.076-41.972-2.474-51.998.683-11.429 6.8-19.099 12.474-22.37 1.777-1.022 3.635-2.027 5.509-3.038 9.72-5.252 19.771-10.685 19.771-19.962 0-7.257-2.824-9.527-5.811-11.933l-.318-.261c-1.982-1.601-4.229-3.417-5.554-6.399-3.627-8.153-4.222-28.921-.004-34.193 2.103-2.627 7.742-11.461 6.122-17.397-.621-2.266-2.049-3.945-4.371-5.135-2.459-1.259-5.775-1.897-9.867-1.897-8.025 0-16.936 2.444-21.527 3.899-16.419 5.204-36.231 20.208-41.914 24.683l-.274.21-3.636 2.527 2.273-3.803c.144-.237 14.535-23.905 40.271-32.583 5.008-1.688 14.844-4.521 24.512-4.521 5.756 0 10.635 1.005 14.506 2.985 4.714 2.411 7.904 6.258 9.232 11.121 3.25 11.921-7.336 25.194-7.697 25.618-1.234 2.203-1.756 18.206 1.091 24.611.392.884 1.467 1.753 2.831 2.851.426.345.899.703 1.408 1.086 4.023 3.036 10.102 7.623 10.102 18.196 0 14.467-14.662 22.311-26.441 28.618-1.935 1.04-3.782 2.024-5.445 2.985z"/><path fill="#463014" d="M250.94 65.415c-2.332-3.95-8.296-11.577-22.042-18.279-15.34-7.477-33.094-11.272-52.777-11.281v-.004h-.076v.002c-19.686.01-37.443 3.805-52.779 11.281-13.746 6.703-19.708 14.329-22.042 18.279l-1.001 1.325 11.771 2.62.373-.471.197-.432c.182-.778 1.76-4.978 14.884-11.378 14.03-6.843 30.394-10.312 48.633-10.318 18.241.006 34.598 3.475 48.627 10.318 13.125 6.4 14.708 10.6 14.888 11.378l.196.432.369.471 11.775-2.62-.996-1.323z"/><path fill="#463014" d="M266.309 67.117c6.303-5.229 1.609-10.082 2.107-16.023.266-3.161.516-6.144 1.559-7.789 5.801-9.159 19.483-11.938 19.624-11.967l6.423-1.258-4.252-4.973c-.551-.644-18.009-17.301-45.029-8.579-18.895 6.095-32.885 26.763-33.405 27.598l9.472 4.456c.115-.176 11.176-19.603 27.389-24.831 13.105-4.229 25.184-.206 30.355 2.431-5.497 2.196-12.691 6.195-17.024 13.036-2.044 3.231-2.386 7.299-2.718 11.238-.439 5.215-.854 10.138-4.693 13.326l10.192 3.335z"/><path fill="#463014" d="M254.178 64.147l1.326-1.104c3.53-2.928 3.926-7.657 4.352-12.684.342-4.045.695-8.23 2.862-11.652 3.982-6.284 10.286-10.222 15.479-12.563-3.109-1.317-8.951-3.28-16.155-3.28-3.979 0-7.862.602-11.556 1.794-15.039 4.85-25.666 22.377-26.869 24.433l-.451.713-11.209-5.271.57-.91c.132-.212 14.199-21.641 33.924-28.001 5.275-1.704 10.576-2.564 15.756-2.564 18.983 0 30.193 11.317 30.289 11.431l5.317 6.216-8.022 1.573c-.133.027-13.479 2.819-19.006 11.541-.916 1.45-1.156 4.317-1.416 7.361-.151 1.81.229 3.574.599 5.279.802 3.697 1.63 7.521-3.046 11.397l-.406.337-12.338-4.046z"/><path fill="#463014" d="M241.271 57.172c.004-.021 2.548-11.138 9.602-16.75 9.948-7.914 22.097-3.704 22.21-3.667l1.769-5.449c-.59-.191-14.473-4.566-27.273 4.429-12.873 9.046-14.414 17.246-14.552 18.152l8.244 3.285z"/><path fill="#463014" d="M231.975 54.495l.111-.748c.14-.946 1.752-9.519 14.945-18.794 5.428-3.814 11.932-5.832 18.809-5.832 5.216 0 8.901 1.147 9.309 1.278l.906.293-2.365 7.269-.913-.303c-.341-.115-3.409-1.102-7.537-1.102-5.29 0-9.923 1.552-13.767 4.615-6.746 5.365-9.243 16.101-9.266 16.207l-.248 1.092-9.984-3.975zm40.49-18.919l1.175-3.619c-1.386-.352-4.192-.924-7.8-.924-6.574 0-12.533 1.846-17.709 5.484-10.828 7.611-13.416 14.488-14.003 16.78l6.497 2.587c.85-3.021 3.664-11.442 9.656-16.21 4.135-3.286 9.306-5.024 14.958-5.024 3.25 0 5.868.561 7.226.926z"/><path fill="#463014" d="M199.242 292.559c-4.917-5.257-7.826-10.914-8.529-12.652-.402-.99-.86-2.877.582-4.359 1.124-1.148 3.072-1.737 5.796-1.737h4.192c4.369 0 9.478 0 12.516.003l2.548.004c3.579 0 5.342 1.024 6.191 1.882 1.234 1.249 1.427 2.987.577 5.162-2.277 5.812-7.442 10.555-8.969 11.87-2 1.727-4.871 2.75-7.691 2.75-2.891 0-5.452-1.039-7.213-2.923z"/><path fill="#463014" d="M203.498 147.562l10.176-.655s-2.599 4.588-4.285 10.522c-1.904 6.712 1.741 16.521 1.741 16.521s-13.577-15.37-7.632-26.388z"/><path fill="#E78724" d="M176.085 111.211c-6.489 0-14.95-.178-21.298-4.74 0 0 8.312 14.571 21.287 14.571l.011-1.844.011 1.844c12.976 0 21.287-14.571 21.287-14.571-6.348 4.562-14.815 4.74-21.298 4.74z"/><path fill="#463014" d="M193.952 111.141c-6.509 3.939-12.322 5.304-17.867 5.425-5.546-.121-11.357-1.486-17.867-5.425 0 0 9.479 11.567 17.819 11.656v.007l.047-.004.047.004v-.007c8.338-.089 17.821-11.656 17.821-11.656z"/><path fill="#463014" d="M216.207 322.367l-.726-9.435c30.565-2.351 40.196-31.643 40.246-34.726h9.464c.004 7.131-12.75 41.376-48.984 44.161z"/><path fill="#fff" d="M226.389 261.016c.569-3.273.624-6.377-.066-9.427 2.758-2.07 7.696-2.839 11.404-4.041 3.032-1.919 18.552 1.967 29.809-11.656 14.104-17.059 11.132-27.244 11.132-27.244 3.619 4.018 7.121 2.487 12.637 21.221 5.52 18.738-2.595 31.801-17.712 44.915-7.141 6.195-17.238 8.747-25.922 9.724 2.909-2.921-4.969-3.213-10.396-5.245.434-4.384-.295-8.64-3.563-12.067-1.967-2.066-4.507-3.301-7.136-4.285l-.411-.98c.087-.298.169-.599.224-.915z"/><path fill="#C9C9C9" d="M237.342 279.149c.318-.92.551-1.858.784-2.802.255-1.031 1.505-3.952-.038-.617.396-.854.655-1.734.846-2.621 24.482-.031 45.781-16.84 41.662-52.179 3.205-4.255 7.696 8.58 7.696 8.58s12.257 35.588-19.397 49.381c-10.547 4.6-19.867 7.897-22.067 6.566-4.585.931-8.72-2.263-10.267-4.363.289-.645.56-1.291.781-1.945z"/><path fill="#463014" d="M226.827 255.892c-.034-2.983-.647-5.872-2.085-8.751l-.326-.581c9.42-.081 20.271-.983 29.51-4.681 10.154-4.062 22.857-17.959 25.041-34.287 0 0 19.125 14.758 13.505 46.346-5.279 29.662-30.097 39.332-58.404 40.968-.015-.192 3.185-6.8 2.173-10.845 16.07 1.168 34.045-5.042 42.727-19.32 7.939-13.068 5.712-35.379 2.447-38.648-7.961 25.129-36.62 30.237-54.588 29.799z"/><g fill="#463014"><path d="M175.978 294.839"/><path d="M238.258 263.332c-3.382-3.656-9.6-8.014-23.937-8.014 0 0-27.182-.016-38.188-.023h-.094c-11.005.008-38.194.023-38.194.023-14.333 0-20.551 4.359-23.935 8.014-4.929 5.321-5.702 12.723-2.292 21.975 9.061 24.626 21.794 49.645 64.419 49.68v.004l.047-.004.047.004v-.004c42.621-.037 55.354-25.054 64.418-49.68 3.41-9.252 2.635-16.654-2.291-21.975zm-6.636 20.248c-4.317 12.366-15.919 42.298-55.539 42.35-39.625-.052-51.223-29.983-55.54-42.35-2.389-6.861-2.207-11.938.559-15.092 1.889-2.156 6.229-4.729 16.12-4.729l10.333-.004c7.623-.007 17.194-.015 28.529-.019 11.331.004 20.907.012 28.528.019l10.329.004c9.894 0 14.233 2.572 16.123 4.729 2.763 3.157 2.947 8.231.558 15.092z"/></g><path fill="#463014" d="M223.863 237.902c5.094 14.949 15.498 27.047 15.498 27.047s-14.312-.651-15.103-3.184c-.581-1.867-12.921-30.752-17.657-64.589 4.452 7.319 16.825 39.446 17.262 40.726z"/><g fill="#463014"><path d="M62.229 357.738c-1.906-1.15-4.042-2.159-6.349-2.996-2.291-.831-4.823-1.493-7.53-1.969-2.711-.479-5.637-.719-8.7-.719-5.934 0-11.395.888-16.229 2.639-4.85 1.762-9.048 4.266-12.478 7.444-3.443 3.184-6.125 7.024-7.973 11.417-1.844 4.377-2.777 9.236-2.777 14.453 0 5.127.979 9.95 2.909 14.332 1.929 4.38 4.632 8.217 8.029 11.41 3.392 3.189 7.456 5.725 12.09 7.532 4.623 1.802 9.716 2.72 15.141 2.72 2.979 0 5.803-.14 8.396-.424 2.603-.282 5.1-.734 7.424-1.34 2.321-.604 4.543-1.388 6.606-2.336 2.062-.943 4.07-2.088 5.966-3.395.347-.236.551-.628.551-1.047v-28.667c0-.7-.568-1.271-1.27-1.271h-25.69c-.703 0-1.272.57-1.272 1.271v11.471c0 .704.569 1.272 1.272 1.272h9.243v8.143c-1.282.456-2.639.835-4.051 1.128-1.688.354-3.668.534-5.887.534-2.866 0-5.541-.482-7.942-1.429-2.383-.938-4.469-2.321-6.195-4.106-1.738-1.792-3.124-4.027-4.113-6.649-1-2.64-1.507-5.718-1.507-9.151 0-3.1.46-5.941 1.363-8.446.897-2.485 2.187-4.64 3.826-6.396 1.633-1.752 3.647-3.131 5.979-4.097 2.345-.975 5.035-1.463 7.997-1.463 1.634 0 3.12.073 4.415.222 1.287.146 2.523.39 3.672.707 1.155.326 2.3.748 3.403 1.258 1.159.537 6.553 3.609 7.804 4.312.856.479 1.382.509 1.954-.3l7.269-10.613c.369-.521.288-1.246-.193-1.674-1.514-1.353-3.248-2.621-5.153-3.777zM126.014 397.661c-.793-1.225-1.745-2.283-2.828-3.146-.343-.273-.691-.531-1.051-.775 1.482-.683 2.849-1.481 4.081-2.373 1.898-1.376 3.526-2.963 4.836-4.723 1.319-1.77 2.326-3.721 2.994-5.8.667-2.078 1.003-4.304 1.003-6.634 0-3.05-.57-5.916-1.692-8.522-1.141-2.644-2.983-4.963-5.472-6.89-2.455-1.895-5.641-3.387-9.468-4.439-3.78-1.033-8.389-1.555-13.701-1.555h-23.508c-.702 0-1.27.568-1.27 1.27v67.912c0 .698.568 1.27 1.27 1.27h16.763c.702 0 1.27-.571 1.27-1.27v-23.857h2.995c1.336 0 2.05.229 2.41.418.501.263.958.734 1.365 1.396l12.004 19.724c1.463 2.384 3.865 3.589 7.132 3.589h15.219c.705 0 1.272-.571 1.272-1.27 0-.365-.153-.695-.399-.926l-15.225-23.399zm-10.493-18.546c-.397 1.109-1.022 2.051-1.902 2.883-.894.834-2.063 1.502-3.483 1.981-1.463.497-3.286.749-5.419.749h-5.476v-17.594h5.476c4.009 0 6.968.754 8.794 2.235 1.77 1.438 2.629 3.401 2.629 6.005.003 1.341-.207 2.597-.619 3.741zM210.252 352.804h-16.762c-.704 0-1.27.569-1.27 1.271v40.223c0 2.241-.305 4.258-.901 5.999-.585 1.698-1.435 3.151-2.526 4.321-1.089 1.158-2.444 2.065-4.03 2.691-3.224 1.272-7.894 1.272-11.119 0-1.582-.626-2.934-1.537-4.022-2.712-1.094-1.184-1.946-2.645-2.531-4.351-.594-1.731-.899-3.751-.899-5.996v-40.178c0-.7-.568-1.27-1.27-1.27h-16.763c-.702 0-1.27.569-1.27 1.27v40.223c0 4.314.75 8.335 2.226 11.948 1.484 3.636 3.655 6.814 6.455 9.443 2.79 2.622 6.226 4.69 10.205 6.141 3.954 1.44 8.47 2.171 13.43 2.171 4.924 0 9.424-.732 13.383-2.171 3.979-1.452 7.408-3.519 10.202-6.141 2.8-2.631 4.979-5.804 6.479-9.436 1.495-3.621 2.252-7.644 2.252-11.954v-40.223c0-.7-.566-1.269-1.269-1.269zM289.203 352.804h-14.781c-.701 0-1.269.569-1.269 1.271v35.936c0 1.075.03 2.217.093 3.428l-31.793-37.781c-.513-.581-.967-1.043-1.366-1.385-.466-.396-.96-.705-1.462-.92-.503-.219-1.068-.365-1.688-.443-.536-.068-1.204-.102-1.992-.102h-8.83c-.698 0-1.268.568-1.268 1.27v67.912c0 .698.569 1.27 1.268 1.27h14.781c.701 0 1.274-.571 1.274-1.27v-36.4c0-.904-.028-1.854-.083-2.869l31.554 37.471c.956 1.147 1.987 1.961 3.068 2.414 1.045.434 2.313.654 3.763.654h8.729c.698 0 1.268-.571 1.268-1.27v-67.912c.002-.705-.566-1.274-1.266-1.274zM358.532 352.804h-57.431c-.701 0-1.272.569-1.272 1.271v12.49c0 .701.571 1.272 1.272 1.272h19.064v54.149c0 .698.57 1.27 1.272 1.27h16.759c.702 0 1.272-.571 1.272-1.27v-54.149h19.061c.7 0 1.271-.571 1.271-1.272v-12.49c.003-.702-.568-1.271-1.268-1.271z"/></g></g></svg>